<?xml version="1.0" standalone="no"?>
<!DOCTYPE svg PUBLIC "-//W3C//DTD SVG 20010904//EN"
 "http://www.w3.org/TR/2001/REC-SVG-20010904/DTD/svg10.dtd">
<svg version="1.0" xmlns="http://www.w3.org/2000/svg"
 width="1160.000000pt" height="1160.000000pt" viewBox="0 0 1160.000000 1160.000000"
 preserveAspectRatio="xMidYMid meet">
<metadata>
Created by potrace 1.14, written by Peter Selinger 2001-2017
</metadata>
<g transform="translate(0.000000,1160.000000) scale(0.100000,-0.100000)"
fill="#000000" stroke="none">
<path d="M4984 10527 c-22 -39 -159 -277 -304 -527 -144 -250 -297 -513 -338
-585 -116 -202 -214 -371 -276 -477 -129 -225 -174 -301 -264 -458 -93 -162
-183 -317 -297 -515 -32 -55 -90 -156 -130 -225 -40 -69 -224 -388 -410 -710
-186 -322 -370 -641 -410 -710 -40 -69 -132 -228 -205 -355 -193 -336 -265
-460 -375 -650 -54 -93 -156 -269 -225 -390 -70 -121 -161 -278 -202 -350
-409 -707 -768 -1330 -846 -1465 -52 -91 -145 -250 -205 -355 -61 -104 -143
-246 -182 -315 -40 -70 -117 -202 -171 -295 -125 -216 -150 -263 -144 -268 3
-2 167 -98 365 -212 198 -114 412 -238 475 -275 63 -37 180 -104 260 -150 80
-46 194 -112 254 -147 l108 -63 5069 0 c3038 0 5069 4 5069 9 0 5 -167 299
-372 653 -204 353 -419 726 -478 828 -359 622 -477 828 -544 943 -31 53 -81
141 -112 195 -31 53 -89 153 -129 222 -342 594 -499 865 -566 980 -43 74 -194
336 -336 582 l-258 448 -265 152 -265 153 -36 60 c-37 62 -183 312 -351 605
-83 143 -628 1088 -846 1465 -41 72 -133 231 -205 355 -121 211 -160 278 -349
605 -41 72 -150 261 -242 420 -92 160 -173 295 -179 302 -7 6 -217 129 -467
274 -541 312 -552 319 -565 319 -5 0 -28 -33 -51 -73z m1157 -744 c40 -71 102
-180 139 -243 37 -63 102 -176 145 -250 43 -74 111 -191 150 -260 40 -69 166
-287 280 -485 270 -467 340 -589 410 -710 115 -199 204 -353 297 -515 52 -91
130 -226 173 -300 43 -74 127 -218 185 -320 59 -102 148 -256 198 -343 l92
-158 -191 -332 c-106 -183 -215 -372 -244 -422 -49 -84 -403 -696 -520 -900
-28 -49 -86 -150 -128 -222 -42 -73 -110 -190 -151 -260 -40 -71 -117 -204
-171 -298 -54 -93 -128 -222 -165 -285 -322 -560 -485 -840 -490 -840 -3 0
-12 12 -21 28 -52 90 -197 340 -393 680 -42 72 -110 191 -151 262 -41 72 -108
187 -149 258 -40 70 -225 390 -411 712 -414 717 -575 996 -672 1165 -41 72
-80 135 -86 142 -11 11 -186 113 -325 190 -48 27 -62 39 -57 52 3 9 128 227
278 486 149 258 301 522 337 585 37 63 111 192 165 285 54 94 130 226 170 295
170 295 229 397 299 518 161 279 336 581 626 1085 168 290 305 527 306 527 1
0 34 -57 75 -127z m-1736 -4233 c131 -227 292 -506 407 -705 164 -284 277
-480 401 -695 227 -393 269 -466 537 -930 145 -250 295 -511 335 -580 166
-289 226 -392 295 -510 40 -69 88 -153 107 -187 19 -35 38 -65 43 -68 4 -3 39
50 78 118 77 134 157 274 307 532 54 94 131 227 171 298 41 70 109 187 151
260 42 72 100 173 128 222 29 50 305 529 615 1065 310 536 597 1034 638 1105
41 72 98 169 125 218 28 48 55 86 60 84 5 -1 44 -63 86 -137 43 -74 122 -211
176 -305 54 -93 131 -227 171 -297 41 -71 108 -188 151 -260 73 -128 182 -317
385 -668 99 -172 732 -1268 823 -1425 29 -49 112 -193 185 -320 73 -126 165
-286 205 -355 40 -69 116 -201 170 -295 54 -93 132 -228 173 -300 42 -71 101
-175 133 -230 l57 -100 -4981 -3 c-2739 -1 -4982 0 -4984 2 -2 2 172 309 388
682 216 374 426 738 467 809 41 72 107 186 147 255 153 264 190 329 260 450
40 69 116 202 170 295 54 94 157 271 228 395 226 392 267 463 612 1060 186
322 361 625 388 673 44 79 51 86 62 70 7 -10 65 -110 130 -223z"/>
</g>
</svg>
