<?xml version="1.0" standalone="no"?>
<!DOCTYPE svg PUBLIC "-//W3C//DTD SVG 20010904//EN"
 "http://www.w3.org/TR/2001/REC-SVG-20010904/DTD/svg10.dtd">
<svg version="1.0" xmlns="http://www.w3.org/2000/svg"
 width="726.000000pt" height="726.000000pt" viewBox="0 0 726.000000 726.000000"
 preserveAspectRatio="xMidYMid meet">
<metadata>
Created by potrace 1.11, written by Peter Selinger 2001-2013
</metadata>
<g transform="translate(0.000000,726.000000) scale(0.100000,-0.100000)"
fill="#000000" stroke="none">
<path d="M4703 6582 c-6 -4 -21 -30 -33 -57 -12 -28 -27 -57 -34 -65 -11 -13
-47 -98 -118 -275 -26 -65 -74 -149 -94 -166 -27 -22 -43 -19 -133 25 -102 51
-115 55 -261 71 -19 2 -51 6 -70 9 -19 3 -53 8 -75 10 -22 2 -81 16 -130 31
-49 15 -97 29 -107 31 -10 2 -26 6 -35 9 -10 2 -70 18 -133 35 -63 17 -126 33
-140 35 -14 2 -36 6 -50 10 -53 12 -186 38 -215 41 -16 1 -48 5 -70 8 -136 20
-187 23 -340 21 -156 -3 -193 -6 -280 -20 -16 -2 -55 -7 -85 -10 -30 -3 -68
-8 -85 -11 -16 -3 -44 -7 -61 -9 -17 -3 -43 -9 -58 -15 -14 -5 -26 -7 -26 -5
0 2 -11 0 -25 -5 -14 -5 -37 -12 -50 -15 -14 -3 -36 -7 -49 -10 -13 -3 -42
-11 -65 -20 -23 -8 -45 -14 -49 -15 -59 -4 -650 -218 -818 -297 -33 -15 -61
-28 -64 -28 -3 -1 -16 -6 -30 -12 -14 -6 -47 -20 -75 -31 -27 -11 -81 -36
-120 -55 -57 -28 -177 -81 -290 -128 -11 -4 -51 -22 -89 -39 -38 -17 -92 -40
-120 -52 -67 -29 -206 -108 -206 -119 0 -5 9 -13 20 -19 19 -10 27 -7 160 66
50 27 251 -10 505 -94 61 -20 115 -37 120 -38 6 -2 19 -5 30 -8 61 -14 460
-180 638 -265 70 -34 130 -61 131 -61 2 0 57 -25 122 -55 183 -86 341 -169
374 -197 10 -9 28 -21 39 -27 22 -12 18 -41 -6 -41 -8 0 -11 5 -7 12 4 7 3 8
-5 4 -9 -6 -9 -11 0 -22 6 -8 9 -17 5 -21 -3 -3 -6 -2 -6 4 0 6 -10 13 -23 16
-21 6 -21 6 -3 -8 19 -14 18 -15 -11 -15 -18 0 -40 -10 -56 -24 -19 -17 -28
-21 -37 -12 -8 8 -9 7 -5 -6 5 -13 2 -18 -9 -18 -9 0 -16 -5 -16 -11 0 -6 -7
-9 -15 -5 -20 7 -19 -4 3 -20 16 -13 16 -14 -2 -8 -10 4 -22 1 -28 -7 -8 -11
-9 -11 -5 2 3 9 1 22 -5 30 -8 11 -9 11 -5 -3 3 -9 1 -19 -6 -21 -9 -3 -8 -9
3 -23 9 -12 9 -15 1 -7 -15 13 -44 6 -35 -8 3 -5 10 -6 16 -3 7 4 8 2 4 -5 -6
-9 -11 -9 -24 1 -13 11 -16 11 -20 -1 -3 -8 -16 -26 -30 -40 -22 -22 -26 -23
-36 -9 -11 15 -13 15 -24 -3 -7 -11 -17 -17 -22 -14 -6 3 -7 -1 -4 -10 4 -10
1 -14 -7 -12 -8 2 -11 2 -6 0 18 -11 -6 -22 -26 -12 -19 8 -20 8 -7 -3 19 -16
20 -40 1 -46 -9 -3 -11 0 -5 9 6 11 4 11 -12 -1 -10 -8 -20 -15 -22 -16 -2 -1
4 -9 13 -18 15 -14 15 -16 1 -16 -9 0 -16 6 -16 13 0 9 -3 8 -9 -2 -7 -11 -9
-11 -14 0 -2 8 -4 -3 -2 -24 2 -29 0 -35 -11 -27 -10 9 -11 6 -7 -9 3 -12 10
-18 17 -14 6 3 3 -3 -7 -14 -9 -11 -14 -23 -10 -27 4 -4 -1 -4 -11 0 -12 5
-14 9 -6 14 8 5 6 9 -6 14 -9 3 -19 4 -22 1 -3 -3 0 -5 8 -5 10 0 10 -3 1 -14
-9 -11 -9 -16 0 -22 8 -5 9 -3 4 7 -7 12 -6 12 7 1 17 -14 21 -52 5 -52 -5 0
-5 10 -1 22 6 21 5 22 -11 8 -11 -8 -16 -10 -12 -4 4 7 0 15 -9 18 -13 5 -12
-1 6 -31 18 -31 19 -35 3 -22 -10 8 -21 19 -25 24 -5 6 -8 5 -8 -2 0 -7 10
-22 23 -33 14 -14 16 -19 6 -15 -10 4 -20 1 -25 -6 -5 -8 -3 -10 6 -4 9 5 11
4 6 -3 -4 -7 -2 -12 3 -12 6 0 11 -5 11 -11 0 -8 -4 -8 -12 -2 -18 14 -45 12
-45 -3 0 -7 4 -11 8 -8 4 2 9 1 12 -3 2 -5 2 -2 0 5 -1 7 2 10 8 7 6 -4 8 -13
5 -20 -2 -7 1 -18 7 -24 9 -10 9 -12 -3 -9 -11 2 -14 -5 -13 -24 2 -23 0 -26
-11 -15 -10 9 -11 14 -2 19 6 4 7 8 2 8 -5 0 -3 7 4 15 9 10 9 15 1 15 -6 0
-11 -5 -11 -11 0 -5 -4 -8 -9 -5 -17 11 -2 -49 16 -63 15 -11 15 -13 1 -8 -17
6 -34 -18 -18 -28 5 -3 6 -13 3 -23 -6 -14 -4 -15 9 -4 11 9 18 10 23 2 4 -6
1 -9 -6 -8 -8 2 -13 -7 -14 -19 0 -12 -5 -27 -11 -33 -7 -7 -10 2 -9 34 0 25
-3 42 -8 39 -4 -3 -6 -11 -3 -19 3 -7 1 -16 -4 -19 -9 -6 -8 -31 3 -41 14 -14
7 -26 -8 -14 -9 8 -15 8 -15 2 0 -6 5 -12 11 -14 8 -3 7 -13 -3 -33 -17 -33
-14 -55 8 -55 11 0 12 4 4 19 -13 25 -13 41 0 21 8 -12 10 -10 8 9 -2 16 3 25
15 26 9 2 15 -1 11 -6 -3 -5 -9 -7 -14 -4 -5 3 -7 -11 -5 -31 2 -29 -2 -38
-17 -42 -15 -4 -17 -7 -6 -13 11 -7 11 -9 -1 -9 -7 0 -11 -6 -8 -13 3 -8 -3
-13 -14 -13 -22 0 -25 12 -5 19 14 6 16 30 3 43 -3 4 -5 -3 -2 -14 2 -12 -3
-23 -12 -26 -17 -7 -12 -31 7 -31 17 0 22 -35 8 -53 -11 -13 -49 -13 -59 1 -3
4 -5 -14 -5 -40 1 -30 6 -48 13 -48 6 0 14 -3 17 -7 3 -5 3 -6 -1 -3 -3 3 -13
-1 -21 -8 -13 -9 -14 -9 -8 0 5 9 2 11 -9 6 -9 -3 -12 -9 -7 -12 5 -3 8 -19 8
-34 -1 -16 5 -32 14 -37 8 -5 11 -10 6 -10 -5 0 -18 8 -29 18 -19 16 -20 16
-9 -4 6 -12 8 -24 5 -28 -3 -3 -1 -6 5 -6 7 0 12 -5 12 -11 0 -8 -5 -8 -15 1
-12 10 -16 9 -21 -4 -3 -9 -11 -13 -16 -10 -6 4 -2 -5 7 -20 10 -14 13 -26 9
-26 -5 0 -3 -4 5 -9 7 -5 10 -14 7 -20 -11 -17 -25 -4 -21 19 2 10 -4 25 -13
32 -15 11 -16 11 -4 -4 9 -11 10 -18 2 -23 -6 -3 -8 -11 -5 -16 4 -5 1 -9 -4
-9 -6 0 -11 -5 -11 -11 0 -8 4 -8 14 0 10 9 15 8 20 -4 3 -8 3 -22 0 -30 -5
-12 -10 -13 -20 -4 -9 7 -14 8 -14 1 0 -6 6 -13 13 -16 10 -5 10 -7 0 -12 -7
-3 -13 -10 -13 -15 0 -6 4 -7 10 -4 5 3 10 -2 10 -11 0 -20 13 -11 16 11 1 8
-2 12 -8 9 -6 -4 -6 2 1 14 14 27 28 35 28 17 0 -8 -4 -12 -9 -9 -16 10 -8 -9
9 -22 17 -13 17 -14 -2 -8 -16 6 -18 5 -7 -7 17 -18 15 -32 -3 -25 -8 3 -15 0
-15 -6 0 -6 -8 -3 -19 6 -13 12 -21 14 -26 6 -3 -6 -3 -10 2 -9 22 4 25 -2 7
-16 -14 -11 -15 -14 -2 -9 11 4 16 0 15 -13 -2 -16 6 -19 44 -14 5 0 7 6 3 12
-5 8 -9 8 -14 -1 -5 -8 -9 -7 -13 4 -7 18 8 32 18 16 9 -15 28 -12 19 3 -4 6
-4 9 1 5 4 -4 13 -3 20 2 8 7 12 5 12 -5 0 -7 -3 -14 -6 -13 -20 2 -22 -5 -5
-24 10 -12 13 -18 7 -14 -7 4 -13 3 -13 -2 0 -6 -8 -13 -17 -16 -15 -6 -15 -4
2 14 10 11 13 20 7 20 -6 0 -14 -4 -17 -10 -10 -16 -53 -11 -64 8 -6 9 -11 12
-11 5 0 -6 4 -14 10 -18 5 -3 7 -13 4 -23 -5 -13 -4 -14 4 -4 7 11 10 11 15
-2 4 -9 3 -15 -1 -15 -4 1 -10 0 -14 -1 -22 -7 -34 -4 -40 10 -5 10 -7 7 -5
-10 1 -18 -3 -25 -15 -24 -10 1 -18 -3 -18 -8 0 -6 9 -8 20 -5 15 4 20 0 20
-15 0 -10 5 -16 10 -13 6 3 10 1 10 -4 0 -11 -27 -10 -46 1 -6 4 -11 1 -11 -7
0 -8 4 -12 8 -9 4 2 7 -4 7 -13 -1 -10 2 -29 7 -43 7 -21 6 -23 -6 -13 -10 8
-19 9 -29 1 -12 -8 -12 -9 2 -4 22 7 35 -13 17 -26 -11 -7 -9 -8 5 -4 14 5 17
2 12 -9 -8 -21 20 -31 39 -15 10 9 15 9 15 1 0 -6 -4 -11 -10 -11 -5 0 -10
-10 -10 -21 0 -19 2 -20 17 -8 15 12 14 11 -1 -13 -10 -15 -15 -32 -12 -37 4
-6 -3 -15 -14 -21 -20 -11 -21 -10 -10 9 6 12 7 21 3 21 -4 0 -2 4 6 9 12 7
12 13 3 24 -7 7 -8 18 -4 22 4 5 1 5 -5 1 -7 -4 -13 -3 -13 2 0 6 -7 13 -16
16 -19 7 -8 -14 18 -32 10 -7 15 -18 12 -24 -4 -7 -9 -6 -14 1 -5 9 -10 7 -20
-4 -11 -13 -10 -15 3 -10 8 4 18 2 21 -3 8 -14 -33 -64 -46 -56 -7 5 -8 2 -4
-5 6 -9 13 -8 27 5 18 16 19 16 19 -5 0 -12 4 -19 10 -16 6 4 7 11 4 17 -4 7
-2 8 4 4 7 -4 12 -2 12 5 0 7 3 9 6 6 4 -4 1 -14 -7 -23 -8 -10 -15 -25 -15
-36 -1 -10 -2 -28 -3 -39 -1 -17 -4 -19 -15 -10 -11 9 -16 9 -22 0 -4 -7 -3
-10 2 -7 5 3 18 -4 29 -15 11 -11 15 -17 9 -14 -6 4 -20 -3 -30 -16 l-19 -22
23 19 c17 15 22 16 22 5 0 -8 -6 -21 -12 -28 -10 -11 -10 -13 0 -7 17 10 15
-5 -5 -34 -16 -24 -16 -24 0 -11 20 16 22 8 6 -21 -8 -16 -8 -19 1 -13 8 5 11
3 8 -6 -3 -8 -11 -13 -17 -12 -6 2 -11 -2 -11 -7 0 -13 17 -13 25 0 4 6 10 8
14 6 4 -3 8 1 8 9 0 8 -4 15 -9 15 -4 0 -8 5 -8 11 0 5 5 7 12 3 7 -5 8 -3 3
6 -6 9 -4 11 5 5 9 -6 11 -4 5 5 -6 9 -4 11 4 6 7 -5 10 -11 6 -14 -3 -3 5
-12 17 -19 13 -7 17 -12 10 -13 -7 0 -10 -5 -7 -10 4 -6 11 -8 16 -5 5 4 9 1
9 -4 0 -6 -4 -11 -9 -11 -13 0 -32 26 -24 33 3 4 1 7 -5 7 -23 0 -21 -19 4
-39 15 -12 21 -21 14 -21 -7 0 -18 7 -24 15 -10 14 -14 14 -31 1 -19 -14 -19
-15 -2 -33 18 -21 24 -58 7 -48 -6 4 -8 10 -5 15 3 5 0 12 -7 17 -16 10 -42
14 -33 5 4 -4 11 -7 17 -7 6 0 12 -9 14 -19 3 -19 26 -38 52 -42 8 -2 11 3 8
11 -3 8 0 17 7 21 7 4 9 4 5 0 -8 -9 34 -55 44 -49 4 2 5 -3 2 -12 -6 -14 -8
-13 -21 5 -8 11 -19 20 -25 20 -6 0 -3 -9 7 -20 10 -11 14 -20 9 -20 -5 0 2
-10 16 -21 16 -13 19 -19 8 -15 -10 3 -22 -2 -27 -12 -6 -10 -11 -12 -11 -4 0
15 -30 16 -30 1 0 -5 4 -8 9 -4 5 3 13 1 16 -5 4 -6 12 -7 18 -3 18 13 50 9
55 -6 3 -10 -2 -11 -19 -6 -21 7 -22 6 -10 -9 7 -9 10 -16 7 -16 -4 0 -2 -9 4
-21 11 -19 10 -20 -9 -9 -12 6 -21 13 -21 16 0 3 6 2 13 -2 9 -6 9 -5 0 8 -7
8 -9 19 -5 23 4 5 1 5 -7 0 -8 -5 -12 -4 -8 1 3 5 -3 10 -14 10 -11 0 -15 -4
-10 -9 5 -5 8 -15 7 -21 -2 -6 -1 -8 1 -3 11 18 21 4 17 -23 -3 -17 -1 -30 5
-30 6 0 8 8 5 18 -4 11 1 9 14 -7 12 -15 18 -34 16 -48 -3 -13 1 -23 7 -23 6
0 9 -9 6 -20 -4 -17 -2 -18 16 -9 19 11 19 13 4 24 -13 9 -14 14 -4 24 9 10 9
12 -2 9 -16 -4 -22 35 -8 54 6 9 7 8 3 -4 -3 -11 4 -28 18 -43 16 -17 22 -34
19 -48 -4 -20 -3 -21 10 -4 15 17 33 24 23 8 -3 -5 1 -12 10 -15 8 -3 13 -10
10 -15 -4 -5 -1 -12 4 -14 6 -3 5 -4 -2 -3 -7 2 -12 9 -11 15 2 6 -2 11 -7 11
-6 0 -10 -6 -10 -12 0 -10 -3 -9 -9 1 -6 9 -11 10 -15 2 -4 -6 -5 -11 -1 -11
3 0 1 -10 -6 -21 -8 -15 -8 -19 0 -15 6 4 11 2 11 -4 0 -6 -6 -13 -14 -16 -8
-3 -17 -13 -20 -21 -5 -13 -4 -14 9 -3 10 8 15 9 15 1 0 -6 5 -11 11 -11 5 0
7 4 4 10 -3 5 -1 10 4 10 6 0 11 5 11 11 0 5 -4 8 -8 5 -5 -3 -8 5 -7 16 1 12
7 24 14 26 9 3 11 -2 7 -16 -5 -13 2 -30 20 -51 20 -24 24 -35 15 -44 -13 -13
-14 -27 -2 -27 5 0 13 9 16 21 4 11 9 18 12 16 11 -12 -18 -42 -41 -42 -13 -1
-22 3 -20 7 3 4 0 8 -5 8 -6 0 -11 -7 -11 -16 0 -10 6 -14 15 -10 16 6 56 -59
48 -80 -2 -6 3 -11 12 -11 18 0 20 18 4 34 -13 13 6 57 21 48 5 -3 10 0 13 7
2 7 3 6 2 -2 0 -8 -7 -14 -13 -13 -20 5 -14 -10 15 -34 20 -18 28 -20 35 -11
5 8 7 4 6 -12 -2 -42 1 -50 19 -50 9 0 14 -3 10 -6 -9 -9 -48 6 -42 17 4 5 2
9 -3 9 -6 0 -12 -6 -15 -14 -7 -17 36 -38 60 -30 15 5 16 4 3 -5 -13 -9 -8
-15 12 -12 8 1 1 -39 -8 -48 -4 -3 -4 2 -1 11 7 20 -28 49 -49 41 -17 -6 -18
-24 -1 -22 24 3 34 -1 34 -16 0 -8 -4 -12 -9 -9 -4 3 -8 0 -8 -5 0 -6 7 -11
16 -11 11 0 14 -5 10 -16 -4 -10 -2 -14 6 -11 7 2 12 10 11 16 -2 6 2 11 7 11
13 0 13 -13 0 -26 -6 -6 -6 -15 0 -24 8 -13 10 -13 10 1 0 9 9 24 20 34 11 10
20 13 20 7 0 -7 -4 -12 -8 -12 -5 0 -14 -12 -21 -26 -10 -23 -10 -26 4 -20 9
3 13 2 10 -4 -3 -6 -1 -10 4 -10 6 0 11 -5 11 -12 0 -9 -3 -9 -12 0 -18 18
-33 15 -18 -3 7 -9 19 -14 27 -11 7 3 13 0 13 -6 0 -7 5 -6 15 2 8 7 15 17 15
22 0 6 -7 5 -15 -2 -8 -7 -15 -8 -15 -4 0 5 9 15 21 22 12 8 18 9 15 3 -4 -5
-2 -13 4 -16 6 -4 1 -14 -12 -25 -27 -23 -21 -25 19 -8 19 8 29 19 27 30 -2
14 2 16 15 8 12 -6 22 -5 28 1 6 6 10 5 10 -5 0 -8 -5 -12 -10 -9 -7 4 -8 -1
-4 -13 7 -18 6 -18 -7 -1 -19 24 -25 21 -20 -8 3 -15 0 -25 -7 -25 -7 0 -9 -3
-6 -7 11 -10 56 -12 62 -2 4 5 10 9 14 9 5 0 -7 -16 -25 -36 -32 -33 -43 -56
-26 -52 13 2 42 -14 37 -22 -3 -4 1 -13 8 -19 11 -8 14 -5 14 18 0 19 -5 27
-13 24 -17 -6 -27 14 -16 33 8 15 10 15 15 0 4 -9 13 -13 22 -10 8 3 12 10 9
15 -3 5 8 1 25 -9 32 -18 35 -30 4 -14 -12 7 -25 7 -34 1 -13 -8 -6 -13 15
-10 11 2 36 -19 36 -31 0 -5 -7 -3 -15 6 -9 8 -22 13 -30 10 -21 -8 -19 -23 2
-19 10 1 12 0 6 -2 -21 -7 -15 -23 10 -23 12 0 33 0 47 -1 19 0 21 -2 10 -9
-8 -5 -18 -6 -24 -3 -5 3 -6 1 -2 -5 4 -7 2 -12 -5 -12 -7 0 -10 -3 -7 -6 4
-3 15 -1 26 5 30 16 49 4 47 -30 -1 -16 -5 -32 -10 -37 -4 -4 -6 0 -3 9 4 9 1
16 -7 16 -7 0 -12 -7 -11 -15 0 -8 -6 -17 -14 -20 -12 -4 -13 -2 -4 9 10 12
11 45 2 54 -2 2 -10 0 -18 -5 -10 -7 -11 -10 -2 -10 6 0 12 -5 12 -11 0 -8 -5
-8 -15 1 -8 7 -15 9 -15 5 0 -4 -12 0 -26 10 -15 9 -24 13 -21 8 4 -5 0 -10
-8 -10 -8 0 -15 4 -15 9 0 4 4 8 10 8 5 0 2 8 -8 18 -9 10 -19 16 -22 13 -3
-4 -13 -7 -24 -9 -13 -3 -17 1 -13 12 4 11 0 14 -15 11 -11 -3 -18 -2 -15 2
10 10 -13 44 -25 37 -7 -5 -8 -2 -3 6 6 9 4 11 -5 5 -9 -6 -11 -4 -5 5 6 9 4
11 -5 5 -9 -6 -11 -4 -5 6 8 12 6 12 -8 0 -10 -7 -17 -9 -17 -3 0 6 5 13 10
15 6 3 5 4 -2 3 -8 -2 -12 -16 -12 -35 1 -25 -2 -31 -14 -26 -12 5 -13 3 -2
-10 11 -13 15 -13 21 -3 5 7 9 11 10 8 0 -3 2 -13 4 -22 2 -10 -4 -22 -13 -28
-16 -9 -16 -9 -1 -10 17 0 34 26 30 47 -1 8 4 10 13 7 17 -7 17 -22 -1 -42 -7
-7 -13 -21 -12 -30 0 -12 3 -10 10 7 9 23 10 22 59 -30 28 -29 50 -56 50 -60
0 -4 -10 -5 -22 -3 -21 4 -22 4 -3 -5 14 -6 23 -5 31 5 6 7 15 10 20 6 4 -4 3
0 -4 10 -8 10 -9 19 -3 22 5 4 12 -3 16 -14 7 -23 16 -25 34 -7 10 10 16 7 30
-12 14 -18 20 -21 26 -11 5 9 4 11 -3 6 -7 -4 -12 -1 -12 9 0 13 5 15 18 10 9
-5 25 -8 35 -9 19 0 24 -16 5 -16 -6 0 -8 -3 -4 -7 4 -5 13 -1 19 8 11 14 17
13 53 -15 23 -18 39 -38 37 -46 -4 -13 -3 -13 6 0 8 11 7 18 -3 25 -11 9 -11
14 -1 28 12 17 26 14 21 -6 -2 -7 -1 -9 1 -4 3 4 9 7 14 7 6 0 7 -4 4 -10 -6
-9 8 -14 28 -11 4 0 7 -4 7 -9 0 -6 5 -10 11 -10 6 0 7 5 2 13 -4 6 -8 25 -9
42 -2 26 0 27 11 12 6 -9 15 -14 18 -10 4 3 7 1 7 -5 0 -7 -4 -12 -10 -12 -5
0 -10 -5 -10 -11 0 -8 4 -8 14 0 11 10 17 8 26 -6 10 -16 11 -16 6 0 -3 9 -1
17 4 17 14 0 8 39 -7 45 -10 3 -11 0 -3 -15 7 -12 7 -21 0 -25 -5 -3 -11 -1
-11 4 -1 6 -2 16 -3 21 -2 15 -28 30 -40 23 -5 -4 -6 0 -1 8 8 12 6 12 -8 0
-15 -11 -17 -11 -17 1 0 8 -7 15 -15 15 -8 0 -15 -4 -15 -9 0 -4 5 -8 11 -8 5
0 7 -5 3 -11 -4 -8 -11 -4 -19 11 -8 15 -15 19 -19 11 -4 -6 -2 -11 3 -11 6 0
11 -5 11 -11 0 -8 -6 -7 -17 2 -15 12 -16 12 -8 -1 8 -13 7 -13 -11 0 -15 11
-16 11 -7 0 7 -8 13 -18 13 -24 0 -5 -6 -1 -14 9 -8 11 -12 24 -9 29 4 5 1 6
-6 2 -6 -4 -9 -12 -6 -17 8 -12 -6 -11 -25 1 -13 8 -13 10 2 10 9 0 20 5 24
12 5 8 2 9 -9 5 -10 -4 -24 -10 -33 -14 -12 -4 -15 -2 -12 8 3 8 12 13 20 11
10 -1 15 6 15 20 1 46 3 58 13 58 5 0 7 -8 3 -17 -3 -10 -3 -15 2 -11 4 4 14
0 21 -10 12 -16 13 -16 19 1 6 14 10 15 22 6 12 -10 13 -8 9 14 -2 15 -1 29 3
31 4 3 7 -9 7 -27 -1 -23 -5 -31 -16 -30 -10 2 -16 -5 -17 -18 -2 -16 1 -18
11 -10 7 6 16 8 19 4 4 -3 7 -1 7 5 0 6 10 16 23 22 19 10 20 9 5 -3 -11 -9
-14 -18 -8 -28 11 -16 32 -19 41 -5 4 5 15 -1 25 -13 24 -27 38 -27 23 0 -9
17 -8 24 7 38 17 15 17 15 5 -1 -11 -15 -11 -22 3 -43 19 -29 31 -33 22 -7 -6
16 -5 16 7 0 8 -10 17 -15 21 -11 4 4 4 -1 0 -11 -5 -14 -9 -15 -15 -4 -7 10
-9 10 -9 -2 0 -13 -1 -13 -10 0 -7 11 -8 7 -6 -15 2 -17 5 -30 6 -30 1 0 3 -8
5 -18 6 -31 13 -30 11 2 0 16 -4 27 -8 25 -5 -3 -8 -1 -8 5 0 5 4 12 9 15 11
7 33 -18 24 -27 -3 -4 -1 -7 5 -7 6 0 10 10 9 23 -1 12 3 23 8 24 6 1 9 -4 8
-11 -2 -6 11 -20 27 -30 17 -9 30 -14 29 -9 -3 20 2 34 10 28 5 -3 12 -1 15 4
4 5 -2 8 -11 6 -10 -1 -24 3 -32 9 -12 9 -12 7 -2 -13 10 -17 10 -22 1 -19 -6
2 -10 6 -9 8 1 3 -3 15 -10 28 -9 18 -9 22 1 20 7 -2 19 -10 26 -18 12 -13 13
-12 8 5 -6 20 -6 20 9 1 8 -11 15 -16 15 -11 0 5 5 4 12 -3 9 -9 7 -17 -8 -34
-11 -14 -13 -18 -3 -10 9 6 20 8 24 4 5 -4 5 -1 1 6 -4 6 -2 12 3 12 6 0 10 5
8 12 -3 17 -21 37 -29 32 -4 -2 -9 0 -12 5 -10 16 22 6 43 -13 17 -15 23 -16
36 -6 12 10 16 9 21 -4 3 -9 10 -13 15 -10 5 3 9 1 9 -5 0 -10 25 -9 36 2 4 4
13 2 21 -4 16 -14 17 2 1 21 -7 8 -5 8 6 -1 14 -13 16 -21 7 -35 -7 -13 -10
-15 -11 -5 0 11 -4 9 -15 -5 -15 -19 -15 -19 -9 1 5 16 4 17 -5 5 -15 -21 -14
-30 4 -30 8 0 15 5 15 11 0 5 5 7 12 3 7 -5 5 -11 -7 -21 -11 -7 -14 -13 -8
-13 7 0 15 5 19 11 4 8 9 7 15 -2 6 -10 8 -5 5 13 -3 15 0 30 5 33 5 4 5 15
-2 28 -9 20 -9 20 4 5 8 -10 17 -15 20 -11 4 3 7 1 7 -6 0 -7 5 -9 10 -6 8 5
7 11 -1 21 -8 10 -8 14 0 14 6 0 11 -6 11 -12 0 -9 4 -8 10 2 8 12 9 9 6 -10
-2 -14 -8 -24 -14 -23 -17 4 -22 -25 -7 -37 11 -9 19 -6 39 13 26 26 39 26 29
-1 -5 -10 -3 -13 6 -8 7 5 10 14 7 22 -3 8 -1 14 3 14 5 0 12 -6 14 -12 4 -10
6 -10 6 0 1 17 38 15 45 -3 3 -8 0 -15 -6 -15 -6 0 -9 -3 -5 -6 3 -3 12 -2 19
2 7 5 21 10 32 11 14 3 16 0 8 -10 -8 -9 -8 -17 0 -27 8 -12 9 -12 4 2 -3 10
-1 20 4 23 6 4 10 2 10 -4 0 -12 28 -41 41 -41 5 0 9 5 9 11 0 5 -4 8 -9 4 -9
-5 -51 44 -51 59 0 15 18 4 30 -19 7 -13 17 -22 21 -19 4 2 12 -4 18 -13 10
-17 10 -17 11 0 0 9 -4 17 -10 17 -5 0 -9 3 -9 8 3 20 -2 32 -12 26 -8 -4 -7
-9 2 -16 11 -8 11 -9 -1 -5 -14 3 -15 11 -11 49 0 7 8 3 17 -8 15 -19 16 -19
10 1 -5 17 -4 18 7 5 7 -8 19 -20 26 -26 10 -9 10 -13 0 -19 -8 -5 -10 -4 -5
3 4 7 2 12 -3 12 -13 0 -14 -10 -1 -30 5 -8 10 -10 10 -4 0 6 16 10 34 10 26
-1 38 -6 45 -24 9 -19 13 -21 31 -10 11 7 16 14 10 16 -5 2 -10 8 -10 13 0 6
5 7 10 4 6 -4 18 -1 27 7 15 11 16 11 10 -4 -14 -37 -18 -53 -7 -33 6 11 24
28 40 37 31 18 40 12 18 -11 -11 -10 -9 -15 6 -27 23 -16 39 -1 30 28 -3 12 0
15 13 13 10 -2 20 -4 23 -4 3 -1 -2 -6 -10 -12 -13 -9 -13 -10 2 -6 18 6 33
-19 18 -28 -6 -4 -10 -1 -10 4 0 18 -14 12 -28 -10 -22 -34 1 -43 31 -13 15
15 27 21 27 14 0 -7 3 -10 6 -7 4 4 1 13 -6 22 -7 9 -10 18 -7 21 3 3 11 -3
18 -15 10 -15 16 -17 26 -9 9 7 13 7 13 0 0 -6 -7 -15 -17 -20 -13 -8 -11 -9
12 -9 16 0 22 3 15 7 -8 5 -9 10 -2 14 6 4 15 -2 21 -11 6 -10 11 -13 11 -6 0
16 -39 43 -54 37 -6 -2 -12 4 -13 14 -2 22 24 25 32 4 4 -12 8 -12 22 -1 15
12 16 12 10 -3 -6 -17 18 -46 30 -34 3 3 0 6 -7 6 -13 0 -5 14 8 16 7 1 42 14
55 21 4 2 7 -1 7 -6 0 -6 -6 -11 -14 -11 -7 0 -19 -7 -26 -15 -9 -10 -9 -15
-1 -15 6 0 11 5 11 10 0 6 6 10 14 10 8 0 23 13 32 30 12 19 21 26 25 18 4 -7
0 -18 -9 -25 -16 -12 -15 -12 2 -6 14 5 17 3 11 -7 -5 -9 -4 -11 4 -6 6 4 9
12 6 17 -4 5 -1 9 4 9 6 0 11 8 11 18 0 14 4 12 21 -8 13 -16 19 -19 15 -8 -3
10 -1 20 4 23 5 3 11 -3 13 -12 4 -17 5 -17 6 0 0 9 6 17 12 17 5 0 7 -6 3
-12 -4 -8 -3 -10 2 -5 5 5 9 12 9 15 0 4 4 13 8 20 5 7 5 12 0 11 -20 -3 -25
2 -13 15 9 12 8 15 -9 13 -25 -2 -26 -10 -5 -31 14 -15 14 -16 -6 -13 -12 2
-25 8 -28 13 -10 13 -32 16 -32 4 0 -6 7 -10 16 -10 8 0 13 -4 9 -9 -3 -6 -14
-8 -25 -6 -14 3 -17 -1 -13 -13 3 -9 3 -14 -1 -11 -10 9 -16 50 -7 44 5 -3 12
2 15 11 5 12 2 15 -10 10 -9 -4 -23 -1 -30 5 -9 8 -14 8 -14 1 0 -6 5 -14 10
-17 6 -3 10 -13 10 -21 0 -8 -5 -12 -10 -9 -6 4 -7 12 -3 18 5 9 3 9 -8 1 -8
-6 -31 -10 -51 -9 -22 1 -34 -3 -31 -8 4 -6 1 -7 -8 -2 -11 7 -11 5 1 -11 14
-17 14 -18 -2 -6 -9 8 -15 22 -13 34 3 15 1 18 -6 11 -5 -5 -11 -20 -12 -32
-2 -27 -9 -27 -26 0 -11 19 -11 21 3 16 18 -7 22 8 5 19 -6 3 -15 1 -19 -7 -7
-10 -11 -10 -23 0 -11 9 -17 9 -22 1 -4 -6 -13 -9 -21 -6 -7 3 -16 1 -19 -5
-4 -5 -10 -7 -15 -4 -5 3 -11 1 -15 -5 -4 -6 -11 -7 -17 -4 -7 5 -8 2 -3 -6 5
-9 4 -11 -4 -6 -6 4 -9 12 -6 17 4 5 2 9 -4 9 -5 0 -13 -10 -16 -21 -6 -17 -9
-19 -16 -8 -7 12 -9 11 -9 -1 0 -9 -3 -11 -8 -5 -21 29 -59 6 -41 -26 5 -10 5
-20 0 -23 -13 -9 -31 40 -19 52 16 16 -27 36 -50 23 -10 -6 -12 -11 -4 -12 6
-1 17 -2 22 -3 11 -1 12 -18 3 -26 -4 -3 -3 1 1 7 5 9 2 11 -9 6 -10 -3 -21 0
-25 7 -10 16 -2 42 11 35 4 -3 13 4 19 16 7 11 14 18 17 15 4 -3 13 0 22 7 14
11 14 10 2 -5 -7 -10 -17 -15 -22 -12 -5 3 -9 -2 -9 -11 0 -9 5 -13 10 -10 6
3 10 2 10 -2 0 -5 10 -9 23 -10 21 -2 21 -1 3 13 -11 8 -15 14 -10 14 6 0 16
-6 22 -12 10 -10 15 -10 23 2 8 12 9 10 4 -8 l-6 -22 35 21 c20 11 36 17 36
12 0 -4 4 -2 9 6 5 8 14 10 22 5 18 -11 49 -13 54 -3 3 4 -6 6 -20 5 -17 -2
-26 3 -30 15 -4 11 -14 19 -22 19 -9 0 -14 3 -10 6 9 9 48 -6 42 -17 -9 -13 9
-11 24 4 10 10 11 8 5 -8 -4 -11 -3 -17 1 -12 5 4 17 -1 29 -10 19 -17 19 -16
-2 18 l-22 36 23 -2 c14 -1 23 -9 25 -23 2 -12 7 -22 12 -22 5 0 8 6 6 13 -1
6 -1 9 1 5 3 -5 9 -8 14 -8 6 0 7 5 4 10 -3 6 -1 10 5 10 7 0 9 -8 5 -21 -7
-20 -6 -20 19 -4 21 14 25 15 21 3 -4 -9 0 -15 9 -15 16 0 18 36 1 38 -36 4
-65 18 -65 31 0 6 5 6 14 -1 14 -12 37 -18 89 -26 20 -3 25 -1 20 8 -13 21
-12 36 3 30 9 -3 14 0 12 7 -2 7 4 15 12 17 13 4 13 3 0 -6 -8 -6 -10 -11 -5
-11 6 0 2 -7 -8 -14 -10 -8 -14 -17 -8 -20 12 -8 53 43 44 57 -3 6 -1 7 6 3 9
-6 9 -13 -3 -31 -8 -12 -12 -25 -9 -29 4 -3 15 9 26 26 12 21 15 34 8 36 -6 2
-11 8 -11 13 0 5 9 4 19 -3 19 -11 19 -13 -4 -47 -13 -19 -22 -38 -19 -43 3
-4 -3 -5 -13 -1 -14 5 -16 3 -6 -7 13 -14 48 -6 38 10 -3 5 4 24 17 42 28 40
39 49 51 41 5 -3 8 0 5 8 -3 8 -13 16 -23 17 -10 3 -15 0 -11 -7 4 -6 2 -11
-3 -11 -17 0 -13 20 6 27 9 4 25 14 35 22 20 17 61 24 52 10 -3 -5 0 -9 5 -9
15 0 14 27 -1 34 -7 2 -4 4 7 2 11 -1 29 -7 41 -13 11 -7 26 -8 33 -4 7 5 23
6 35 3 21 -5 21 -5 -1 17 -28 27 -31 41 -3 16 11 -10 20 -13 20 -7 0 6 10 16
21 23 13 6 19 7 15 1 -3 -6 -1 -12 6 -14 12 -4 -2 -41 -15 -39 -20 3 -28 0
-23 -8 3 -4 -11 -7 -32 -5 -33 2 -35 1 -15 -9 l22 -12 -25 -12 c-17 -8 -24 -8
-24 0 0 6 -6 2 -14 -8 -8 -11 -12 -28 -10 -38 3 -16 1 -17 -14 -5 -15 11 -15
11 -5 -2 8 -10 9 -21 3 -30 -7 -11 -10 -11 -11 -2 -1 6 -3 17 -4 22 -1 6 -3
15 -4 22 -2 19 -14 0 -17 -27 -1 -14 1 -23 6 -20 5 3 12 0 16 -6 4 -7 3 -9 -4
-5 -6 3 -13 2 -17 -4 -4 -6 -11 -8 -16 -5 -5 4 -16 2 -25 -3 -14 -8 -14 -11 7
-27 20 -15 21 -16 4 -11 -19 6 -19 5 -2 -8 13 -10 15 -15 5 -19 -7 -2 -10 -8
-5 -13 4 -4 14 2 23 14 8 12 21 22 28 22 8 0 19 7 26 15 10 12 9 16 -4 21 -9
3 -13 10 -10 15 3 5 9 7 14 4 5 -3 19 -1 30 5 11 6 20 7 20 1 0 -5 -7 -11 -15
-15 -17 -6 -20 -26 -4 -26 5 0 7 4 4 10 -6 9 7 14 27 11 4 0 4 7 1 16 -5 12
-3 14 8 8 11 -6 12 -5 2 6 -16 16 -17 37 -2 22 6 -6 18 -9 27 -6 11 5 13 3 7
-7 -5 -9 -4 -11 4 -6 15 10 3 29 -14 22 -8 -3 -19 2 -26 10 -11 13 -10 15 2
14 25 -4 39 0 39 9 0 10 -32 7 -49 -4 -5 -3 -12 -1 -16 5 -3 5 3 10 14 10 12
0 21 4 21 9 0 10 26 9 36 -2 4 -3 7 -16 8 -28 0 -12 8 -24 16 -26 13 -4 13 -3
0 6 -13 9 -12 12 5 26 18 15 18 16 2 11 -12 -4 -17 -2 -15 6 5 15 48 20 48 7
0 -5 5 -9 11 -9 8 0 8 4 0 14 -9 10 -9 20 0 40 7 14 16 26 21 26 11 0 10 -7
-3 -32 -9 -16 -8 -23 5 -34 9 -8 11 -9 6 -2 -15 19 -12 32 5 18 10 -9 15 -9
15 -1 0 6 -5 11 -11 11 -7 0 -8 7 -4 18 4 9 8 23 8 30 0 7 6 11 13 8 20 -8 39
21 25 38 -10 11 -6 17 20 30 38 19 47 20 31 4 -7 -7 -12 -16 -12 -21 0 -5 9 1
21 14 18 21 20 21 14 4 -4 -11 -8 -25 -8 -32 -1 -21 -26 -23 -32 -2 -4 10 -11
19 -16 19 -5 0 -2 -11 7 -25 13 -20 20 -23 35 -14 11 5 17 14 14 19 -3 5 0 12
6 15 6 4 8 17 5 29 -4 16 -1 23 9 23 15 0 15 -3 0 -67 -4 -20 -4 -21 3 -6 6
14 11 16 16 8 4 -7 4 -12 -1 -12 -4 0 9 -10 30 -23 21 -13 34 -26 30 -31 -4
-4 1 -4 11 0 12 5 14 9 6 14 -9 6 -9 9 -1 15 7 3 9 16 6 28 -6 22 -6 22 11 2
16 -20 16 -20 9 3 -3 12 -3 22 2 21 21 -4 34 2 27 13 -5 8 -2 9 9 5 10 -3 17
-2 17 4 0 6 -10 9 -22 7 -11 -2 -23 3 -25 10 -3 8 2 10 14 6 10 -3 14 -2 8 3
-5 4 -11 14 -12 21 -5 21 14 13 31 -13 16 -25 36 -26 36 -2 0 8 -3 8 -9 -1 -6
-10 -12 -7 -24 12 -19 29 -22 46 -6 46 5 0 8 -4 5 -9 -3 -5 1 -14 9 -21 10 -9
15 -9 15 -1 0 6 -4 11 -10 11 -5 0 -9 6 -7 12 1 7 -6 12 -15 12 -20 -2 -22 4
-9 25 6 9 11 10 15 2 4 -6 18 -8 32 -5 15 4 24 2 24 -6 0 -6 -4 -9 -9 -5 -15
9 -25 -15 -12 -28 9 -9 11 -8 5 6 -4 12 -2 17 7 15 8 -2 14 4 14 12 0 10 -9
14 -28 13 -24 -2 -27 0 -17 12 7 8 17 12 24 8 6 -3 8 -3 4 2 -10 11 11 47 23
40 5 -4 9 -14 9 -23 0 -15 -2 -15 -10 -2 -13 20 -13 4 0 -20 10 -19 40 -17 40
2 0 7 -5 6 -14 -1 -11 -9 -13 -6 -11 17 2 34 12 52 27 52 7 0 6 -5 -2 -15 -13
-15 -6 -35 13 -35 7 0 6 4 -3 10 -12 7 -12 11 3 28 10 11 17 25 15 32 -2 7 2
14 9 17 8 3 10 -4 7 -22 -3 -17 1 -27 11 -31 8 -3 12 -11 8 -17 -4 -6 -1 -7 7
-2 10 6 10 11 -3 20 -18 13 -24 30 -8 20 6 -3 15 4 21 15 6 11 15 18 20 15 6
-3 7 1 4 10 -6 14 -10 12 -24 -9 -9 -15 -19 -23 -23 -20 -3 3 8 24 24 47 19
27 27 47 23 60 -5 15 -3 17 7 11 26 -16 36 -12 31 12 -2 13 -8 24 -12 24 -5 0
-6 -10 -3 -23 4 -22 4 -22 -12 -2 -14 18 -14 21 0 31 8 6 12 14 8 17 -3 4 1 7
10 7 9 0 18 4 21 9 3 5 -5 8 -18 7 -13 0 -23 -3 -21 -6 2 -3 0 -12 -6 -20 -6
-11 -9 -12 -9 -2 0 7 -5 10 -11 7 -6 -4 -8 -14 -5 -22 4 -9 2 -11 -6 -7 -7 4
-8 3 -4 -5 4 -6 12 -9 17 -6 5 4 9 1 9 -4 0 -6 -5 -11 -12 -11 -9 0 -9 -3 0
-12 7 -7 12 -17 12 -23 0 -5 -7 -1 -15 9 -20 26 -54 29 -52 4 1 -10 5 -18 10
-18 5 0 4 -6 -2 -13 -6 -8 -8 -17 -4 -20 6 -6 -4 -9 -23 -6 -4 0 -10 -4 -14
-11 -4 -7 -13 -1 -25 17 l-18 28 21 -19 c23 -20 31 -9 10 12 -6 6 -9 15 -5 18
3 4 12 -5 18 -20 9 -19 15 -23 21 -14 11 19 10 30 -4 22 -7 -4 -8 -3 -4 4 4 7
2 12 -3 12 -6 0 -11 5 -11 12 0 6 3 8 7 5 3 -4 15 5 26 20 10 16 16 20 13 10
-4 -13 -2 -17 6 -14 7 2 12 10 10 17 -1 7 3 19 10 28 11 13 10 15 -3 10 -9 -3
-22 -2 -30 4 -11 8 -10 9 4 4 9 -3 17 0 17 6 0 7 4 7 14 -1 11 -10 17 -7 30
11 12 17 13 24 3 30 -9 6 -8 12 5 22 10 7 15 16 11 20 -4 4 6 0 22 -8 20 -10
31 -12 36 -5 9 15 19 13 36 -8 12 -14 12 -12 -1 9 -21 36 -20 38 8 38 14 0 28
5 31 11 4 6 14 8 22 5 8 -3 12 -2 9 3 -6 10 22 25 40 22 14 -2 26 27 17 42 -4
6 0 8 10 4 10 -3 24 -4 32 -1 13 5 13 9 3 22 -11 13 -10 15 3 10 24 -9 60 19
52 40 -6 15 -5 16 12 2 14 -11 17 -11 11 -1 -7 10 -3 12 15 7 20 -6 21 -5 7 4
-27 16 -22 33 5 19 12 -6 19 -8 15 -4 -4 4 2 16 14 26 16 15 18 22 9 33 -14
16 11 42 30 30 7 -4 9 -3 5 4 -3 6 4 18 16 26 12 9 18 16 14 16 -5 0 -18 -7
-28 -17 -29 -26 -31 -9 -1 21 17 17 29 23 33 15 5 -7 9 -6 13 4 3 9 -2 21 -11
29 -13 11 -14 11 -7 -1 6 -10 4 -12 -5 -6 -9 5 -11 4 -6 -3 4 -7 2 -10 -6 -9
-7 2 -10 2 -6 0 4 -2 -7 -17 -24 -34 -18 -17 -25 -29 -17 -29 9 0 10 -3 4 -8
-6 -4 -19 -20 -29 -36 -14 -23 -20 -26 -28 -15 -8 11 -9 10 -4 -4 4 -12 2 -16
-6 -11 -7 5 -8 3 -3 -6 5 -8 4 -11 -3 -7 -6 5 -8 -1 -4 -15 5 -21 4 -22 -13
-8 -15 12 -17 12 -10 1 5 -10 4 -12 -3 -7 -7 4 -12 2 -12 -3 0 -6 -5 -11 -11
-11 -8 0 -7 6 2 17 12 14 12 16 -1 11 -20 -6 -19 -33 2 -33 23 0 32 -11 14
-18 -9 -4 -23 2 -33 11 -16 16 -17 16 -10 0 3 -10 3 -17 -1 -16 -15 3 -42 -15
-36 -24 4 -6 -3 -5 -15 1 -14 8 -21 8 -21 1 0 -5 6 -10 13 -10 15 0 20 -37 6
-45 -5 -4 -9 4 -9 16 0 12 -3 19 -7 15 -8 -7 -9 -11 -12 -37 0 -6 -8 -9 -16
-5 -8 3 -19 -2 -24 -12 -6 -9 -11 -13 -11 -9 0 4 -10 2 -22 -4 -20 -11 -21
-10 -11 3 7 8 10 17 7 21 -3 3 5 3 18 0 18 -4 20 -3 8 6 -11 8 -12 11 -2 11 8
0 10 5 6 13 -6 9 -5 9 8 -1 13 -10 18 -9 29 4 11 13 10 15 -3 12 -9 -1 -17 2
-17 7 0 6 6 9 13 7 7 -1 18 8 24 20 6 13 11 17 11 11 1 -7 6 -13 12 -13 5 0 8
4 5 9 -4 5 0 12 6 14 10 4 9 8 -2 17 -13 10 -13 11 0 7 8 -2 14 -13 13 -23 -1
-18 -1 -18 13 0 15 22 19 40 6 32 -5 -3 -9 1 -9 8 0 7 10 13 21 12 14 -1 20 4
18 14 -2 12 1 11 11 -2 13 -17 15 -17 32 1 9 11 14 25 9 32 -4 8 -3 10 5 5 8
-5 10 0 7 19 -5 27 -5 27 21 10 25 -17 26 -17 19 1 -5 11 -10 26 -13 34 -4 13
-4 13 6 0 8 -12 14 -11 35 9 31 29 25 42 -6 15 -20 -17 -21 -17 -9 -1 8 10 27
25 43 33 18 9 26 19 21 27 -4 7 0 6 10 -2 10 -8 20 -11 24 -7 4 3 -2 13 -13
20 -10 8 -16 18 -11 22 4 4 7 2 7 -4 0 -7 5 -12 10 -12 7 0 7 7 0 20 -6 12
-16 18 -23 14 -7 -4 -9 -3 -4 1 4 5 16 10 27 12 16 2 18 -2 15 -27 -4 -36 4
-43 30 -23 19 14 19 14 1 11 -10 -2 -21 3 -23 10 -3 8 2 10 14 6 11 -4 14 -3
7 3 -8 5 -5 14 9 28 20 20 20 20 15 -1 -3 -12 0 -21 7 -21 14 0 8 34 -9 44
-17 11 -36 12 -36 2 0 -5 5 -9 11 -9 5 0 7 -5 4 -11 -5 -6 -12 -4 -20 8 -11
15 -10 19 6 31 11 7 16 18 13 24 -4 6 -10 5 -16 -3 -8 -11 -9 -11 -5 1 2 8 10
14 16 13 17 -4 13 8 -6 23 -17 13 -17 14 1 7 18 -6 18 -5 1 21 -17 25 -17 26
0 19 13 -4 16 -3 10 6 -6 10 -3 11 15 1 12 -6 24 -9 28 -6 3 3 0 6 -8 6 -9 0
-10 3 -1 14 9 11 9 15 -1 20 -7 3 -4 5 8 2 12 -2 21 2 21 9 0 9 -7 11 -21 5
-13 -5 -20 -15 -18 -26 3 -15 1 -16 -8 -7 -7 6 -18 9 -25 7 -7 -3 -16 -1 -20
5 -4 7 0 8 11 4 12 -4 15 -3 10 5 -5 8 -1 10 11 5 16 -6 16 -5 4 11 -8 9 -10
16 -5 15 22 -4 27 2 11 14 -13 9 -14 16 -6 27 9 13 10 12 5 -2 -3 -10 -1 -18
4 -18 10 0 14 14 11 38 -1 6 2 12 7 12 5 0 8 -10 7 -23 -1 -12 -3 -22 -4 -22
-2 0 -4 -8 -6 -17 -2 -10 1 -18 7 -18 6 0 8 6 5 13 -5 15 27 59 37 50 3 -4 6
-1 6 6 0 8 -7 11 -15 7 -9 -3 -18 1 -21 9 -4 8 -9 13 -13 10 -10 -6 -7 33 4
42 4 5 5 2 1 -5 -6 -10 -1 -11 18 -6 22 5 26 3 26 -14 0 -12 4 -23 9 -26 4 -3
6 6 3 21 -3 14 -13 28 -23 30 -10 3 -16 9 -13 14 3 5 10 7 15 4 5 -4 9 1 9 9
0 19 -11 21 -27 5 -8 -8 -13 -8 -18 0 -3 7 -1 10 6 9 7 -2 13 4 14 12 0 24 28
19 54 -9 l23 -26 -22 39 c-17 29 -20 40 -10 46 9 5 9 9 1 14 -14 9 -14 26 0
26 5 0 8 -4 4 -9 -3 -5 -1 -13 5 -16 7 -4 8 -11 2 -18 -6 -8 -3 -19 11 -32
l20 -20 -13 23 c-9 20 -9 27 4 41 9 10 13 21 9 24 -3 4 1 7 10 7 24 0 58 53
45 71 -8 11 -9 10 -4 -4 3 -10 2 -16 -3 -13 -5 3 -15 -2 -22 -11 -10 -12 -10
-14 -1 -9 6 4 12 3 12 -2 0 -16 -52 -34 -64 -22 -7 7 -6 10 2 10 7 0 12 5 12
11 0 6 -7 8 -17 4 -15 -5 -16 -4 -5 7 11 11 16 10 26 -4 16 -22 23 -23 23 -3
0 8 -4 15 -9 15 -5 0 -8 8 -6 18 2 10 -2 16 -10 14 -8 -1 -11 2 -7 8 8 14 47
-12 40 -27 -8 -21 2 -15 20 14 14 21 14 25 3 20 -8 -3 -21 -1 -29 5 -11 8 -11
9 3 5 23 -8 47 21 27 34 -8 5 -18 9 -23 9 -5 0 -7 3 -4 6 4 3 16 0 28 -6 15
-8 19 -17 15 -33 -6 -22 -6 -22 10 -2 15 19 14 21 -6 38 -12 9 -16 17 -11 17
6 0 14 -4 17 -10 3 -5 10 -10 16 -10 5 0 4 9 -3 19 -7 11 -16 17 -22 14 -5 -3
-6 -1 -2 6 6 9 11 9 21 1 9 -8 14 -7 18 4 4 9 -1 17 -11 20 -13 4 -13 5 3 4
46 -1 51 2 30 19 -15 12 -16 14 -3 10 12 -4 19 1 24 16 5 12 7 25 6 29 -1 4 4
5 11 2 7 -2 13 4 14 16 1 11 -2 18 -8 15 -5 -4 -9 -1 -9 4 0 20 19 11 34 -16
8 -16 15 -24 16 -19 0 5 6 3 14 -3 11 -10 14 -5 12 26 0 21 -5 44 -9 51 -5 7
-4 12 2 12 6 0 11 -5 11 -11 0 -5 4 -8 10 -4 5 3 7 12 3 20 -3 8 -1 15 5 15
11 0 11 -18 -1 -36 -6 -11 0 -24 12 -24 4 0 8 12 9 26 3 33 11 46 24 38 7 -4
8 -2 4 5 -4 6 -17 9 -29 6 -12 -2 -16 -2 -9 1 6 3 9 11 6 16 -4 7 -2 8 4 4 7
-4 12 -1 12 6 0 10 2 10 9 -1 5 -8 17 -16 26 -17 9 -1 24 -6 33 -10 9 -4 19
-8 22 -9 54 -19 426 -202 463 -227 15 -11 27 -17 27 -14 0 15 245 -161 307
-221 67 -64 71 -71 78 -123 8 -61 19 -80 46 -80 31 0 40 32 28 96 -15 78 12
161 53 168 7 1 18 4 23 7 23 14 179 -2 216 -21 13 -7 25 -12 27 -11 9 7 182
-131 255 -204 65 -66 87 -95 97 -129 12 -45 35 -65 53 -47 14 14 -7 100 -50
216 -19 50 -73 202 -120 339 -171 500 -333 854 -548 1196 -102 163 -171 259
-269 373 -67 79 -96 106 -257 243 -147 125 -141 120 -221 178 -38 26 -68 51
-68 55 0 13 -155 177 -204 216 -28 22 -57 46 -65 53 -23 22 -129 92 -140 92
-6 0 -11 4 -11 8 0 5 -18 17 -40 27 -22 10 -40 25 -40 34 0 12 -2 13 -8 4 -6
-10 -12 -10 -28 2 -16 13 -16 14 -1 9 9 -3 17 -2 17 3 0 13 -33 12 -43 -1 -5
-6 -6 0 -3 14 5 24 4 24 -9 6 -13 -17 -18 -16 -17 4 0 3 -11 6 -25 7 -14 0
-28 5 -32 10 -5 7 -18 12 -46 17 -5 1 -15 5 -21 9 -7 4 -73 29 -147 56 -74 27
-144 54 -154 60 -10 5 -32 15 -50 21 -18 7 -44 28 -59 47 -24 32 -26 41 -20
94 3 38 29 120 71 225 36 92 67 181 69 198 3 18 12 51 22 75 14 36 15 45 3 56
-8 8 -19 11 -26 7z m-2621 -1909 c-6 -2 -9 -10 -6 -15 4 -7 2 -8 -5 -4 -13 9
-5 26 12 25 9 0 8 -2 -1 -6z m-61 -66 c-10 -9 -11 -8 -5 6 3 10 9 15 12 12 3
-3 0 -11 -7 -18z m-234 -136 c0 -11 -4 -18 -8 -15 -10 6 -40 -37 -33 -48 3 -4
-2 -5 -10 -2 -13 5 -9 13 16 45 17 21 33 39 34 39 2 0 2 -9 1 -19z m34 -18
c13 -16 12 -17 -3 -4 -10 7 -18 15 -18 17 0 8 8 3 21 -13z m-121 -78 c11 -13
10 -14 -4 -9 -9 3 -16 10 -16 15 0 13 6 11 20 -6z m40 5 c0 -5 -2 -10 -4 -10
-3 0 -8 5 -11 10 -3 6 -1 10 4 10 6 0 11 -4 11 -10z m-67 -43 c7 3 8 2 4 -2
-14 -16 -36 -14 -29 3 4 10 7 12 10 4 2 -7 9 -9 15 -5z m-6 -42 c0 -8 -4 -12
-9 -9 -4 3 -8 9 -8 15 0 5 4 9 8 9 5 0 9 -7 9 -15z m-19 -45 c-7 -10 -14 -17
-17 -15 -4 4 18 35 25 35 2 0 -1 -9 -8 -20z m-87 -297 c13 -16 12 -17 -3 -4
-17 13 -22 21 -14 21 2 0 10 -8 17 -17z m-27 -88 c-7 -16 -24 -21 -24 -6 0 8
7 13 27 20 1 1 0 -6 -3 -14z m-111 -260 c-4 -11 0 -14 13 -9 17 6 17 5 -1 -9
-28 -22 -36 -21 -31 6 3 12 5 26 5 30 1 5 5 6 11 2 5 -3 7 -12 3 -20z m-8
-103 c-3 -3 -11 0 -18 7 -9 10 -8 11 6 5 10 -3 15 -9 12 -12z m4035 -32 c-12
-22 -21 -26 -17 -7 2 10 17 26 25 27 1 0 -2 -9 -8 -20z m-85 -29 c3 -5 2 -12
-3 -15 -5 -3 -9 1 -9 9 0 17 3 19 12 6z m27 -28 c-6 -2 -9 -10 -6 -15 4 -7 2
-8 -5 -4 -13 9 -5 26 12 25 9 0 8 -2 -1 -6z m-4018 -24 c-3 -5 -10 -7 -15 -3
-5 3 -7 10 -3 15 3 5 10 7 15 3 5 -3 7 -10 3 -15z m3956 11 c0 -5 -2 -10 -4
-10 -3 0 -8 5 -11 10 -3 6 -1 10 4 10 6 0 11 -4 11 -10z m80 -20 c0 -5 -8 -10
-17 -10 -15 0 -16 2 -3 10 19 12 20 12 20 0z m0 -30 c0 -5 -2 -10 -4 -10 -3 0
-8 5 -11 10 -3 6 -1 10 4 10 6 0 11 -4 11 -10z m-113 -48 c-10 -10 -14 -22
-10 -27 5 -4 2 -5 -5 -1 -11 6 -10 12 4 27 9 10 19 19 22 19 3 0 -2 -8 -11
-18z m-3892 -50 c-3 -3 -11 0 -18 7 -9 10 -8 11 6 5 10 -3 15 -9 12 -12z
m3842 -7 c0 -8 -4 -12 -9 -9 -5 3 -6 10 -3 15 9 13 12 11 12 -6z m-3803 -104
c-4 -3 -9 0 -11 7 -3 6 -10 9 -15 6 -7 -4 -8 -2 -4 5 6 9 11 9 22 0 8 -6 12
-15 8 -18z m3781 19 c3 -5 1 -10 -4 -10 -6 0 -11 5 -11 10 0 6 2 10 4 10 3 0
8 -4 11 -10z m-3772 -43 c-3 -5 -11 -6 -19 -3 -8 3 -14 0 -14 -6 0 -6 -3 -9
-6 -5 -10 10 3 23 25 23 11 0 17 -4 14 -9z m3737 -101 c0 -3 -4 -8 -10 -11 -5
-3 -10 -1 -10 4 0 6 5 11 10 11 6 0 10 -2 10 -4z m-3920 -38 c0 -18 -2 -20 -9
-8 -6 8 -7 18 -5 22 9 14 14 9 14 -14z m17 -33 c0 -8 -4 -15 -9 -15 -10 0 -11
14 -1 23 9 10 10 9 10 -8z m0 -41 c0 -7 -5 -15 -12 -17 -6 -3 -11 3 -11 12 0
10 5 18 11 18 7 0 12 -6 12 -13z m43 -84 c0 -5 -5 -10 -11 -10 -5 0 -7 5 -4
10 3 6 8 10 11 10 2 0 4 -4 4 -10z m-19 -114 c14 8 11 -2 -4 -14 -10 -8 -13
-6 -14 11 0 12 1 16 4 9 3 -6 9 -10 14 -6z m-15 -125 c-3 -44 -11 -60 -23 -46
-5 4 -2 10 5 12 10 4 10 8 0 21 -7 9 -8 13 -2 9 7 -4 11 5 12 23 0 17 -4 30
-9 30 -6 0 -7 5 -3 11 12 20 23 -14 20 -60z m3711 34 c0 -8 -4 -12 -9 -9 -5 3
-6 10 -3 15 9 13 12 11 12 -6z m-3683 -45 c-5 -5 -10 3 -11 18 -1 22 0 24 9 8
6 -10 6 -22 2 -26z m24 -35 c-3 -3 -9 2 -12 12 -6 14 -5 15 5 6 7 -7 10 -15 7
-18z m-25 1 c4 -10 1 -13 -9 -9 -7 3 -14 9 -14 14 0 14 17 10 23 -5z m48 -20
c-6 -7 -9 -22 -5 -32 5 -18 5 -18 -6 -1 -9 14 -9 22 0 33 7 7 15 14 17 14 3 0
0 -6 -6 -14z m3593 -22 c3 -8 2 -12 -4 -9 -6 3 -10 10 -10 16 0 14 7 11 14 -7z
m-3594 -54 c0 -5 -5 -10 -11 -10 -5 0 -7 5 -4 10 3 6 8 10 11 10 2 0 4 -4 4
-10z m-75 -18 c-4 -10 0 -12 10 -8 9 3 13 2 10 -4 -6 -9 8 -14 28 -11 5 1 6
-3 2 -8 -3 -6 -12 -8 -21 -4 -8 3 -14 2 -13 -3 4 -24 -2 -44 -11 -39 -7 4 -8
11 -1 18 14 17 11 30 -10 45 -23 16 -24 29 -4 29 10 0 14 -6 10 -15z m93 -27
c-3 -3 -9 2 -12 12 -6 14 -5 15 5 6 7 -7 10 -15 7 -18z m-22 -14 c-4 -5 0 -12
6 -14 8 -3 6 -6 -4 -6 -18 -1 -24 10 -11 22 9 10 15 8 9 -2z m54 -17 c0 -8
-19 -13 -24 -6 -3 5 1 9 9 9 8 0 15 -2 15 -3z m30 -4 c0 -5 -5 -10 -11 -10 -5
0 -7 5 -4 10 3 6 8 10 11 10 2 0 4 -4 4 -10z m-49 -27 c13 -17 13 -17 -6 -3
-11 8 -22 16 -24 17 -2 2 0 3 6 3 6 0 17 -8 24 -17z m40 -20 c13 -16 12 -17
-3 -4 -10 7 -18 15 -18 17 0 8 8 3 21 -13z m3389 -13 c0 -5 -4 -10 -10 -10 -5
0 -10 5 -10 10 0 6 5 10 10 10 6 0 10 -4 10 -10z m75 -10 c-10 -11 -23 -20
-28 -20 -6 0 -2 9 8 20 10 11 23 20 28 20 6 0 2 -9 -8 -20z m-3495 -10 c0 -5
-4 -10 -10 -10 -5 0 -10 5 -10 10 0 6 5 10 10 10 6 0 10 -4 10 -10z m40 -25
c0 -1 -6 -8 -14 -14 -11 -9 -16 -9 -22 0 -5 8 -3 9 6 4 10 -6 12 -4 7 8 -4 11
-2 14 9 10 7 -3 14 -6 14 -8z m15 -25 c-3 -5 -12 -10 -18 -10 -7 0 -6 4 3 10
19 12 23 12 15 0z m3222 -10 c1 -11 -2 -22 -8 -25 -5 -4 -6 2 -2 11 5 13 3 15
-8 9 -12 -8 -12 -6 0 8 17 21 16 21 18 -3z m-3247 -30 c-6 -11 -13 -20 -16
-20 -2 0 0 9 6 20 6 11 13 20 16 20 2 0 0 -9 -6 -20z m-33 -12 c-3 -8 -6 -5
-6 6 -1 11 2 17 5 13 3 -3 4 -12 1 -19z m3360 2 c1 -11 -2 -20 -8 -20 -10 0
-12 23 -2 33 9 9 9 10 10 -13z m-3260 -6 c0 -9 -8 -9 -29 -2 -35 13 -35 15 0
14 16 -1 29 -6 29 -12z m-42 -13 c3 -5 0 -13 -6 -17 -8 -5 -9 -3 -4 6 6 10 4
12 -9 7 -10 -4 -15 -3 -11 3 8 13 22 13 30 1z m3156 -24 c-10 -9 -11 -8 -5 6
3 10 9 15 12 12 3 -3 0 -11 -7 -18z m-3134 -9 c2 -17 0 -19 -7 -8 -5 8 -6 18
-4 22 8 12 10 10 11 -14z m-31 -9 c5 0 12 -9 16 -20 5 -12 4 -18 -2 -14 -6 3
-10 13 -10 21 0 8 -5 13 -11 12 -6 -2 -14 4 -16 12 -4 12 -3 12 5 2 5 -8 13
-14 18 -13z m48 -31 c-5 -7 0 -9 14 -6 19 5 20 3 11 -13 -5 -10 -12 -19 -15
-19 -3 0 -3 4 0 9 3 5 -1 12 -10 15 -13 5 -12 26 2 26 3 0 2 -5 -2 -12z m3057
-11 c-10 -9 -11 -8 -5 6 3 10 9 15 12 12 3 -3 0 -11 -7 -18z m25 -10 c-1 -18
-7 -23 -25 -22 -14 0 -26 7 -29 15 -2 9 0 11 5 5 14 -18 32 -15 38 5 8 27 13
25 11 -3z m-3041 -67 c4 -6 1 -9 -7 -8 -7 2 -13 -5 -13 -14 0 -9 -4 -20 -9
-25 -5 -4 -6 -3 -3 4 4 6 1 13 -5 16 -9 3 -7 10 7 21 24 19 22 18 30 6z m2900
-9 c3 -5 2 -12 -3 -15 -5 -3 -9 1 -9 9 0 17 3 19 12 6z m45 -11 c0 -5 -4 -10
-10 -10 -5 0 -10 5 -10 10 0 6 5 10 10 10 6 0 10 -4 10 -10z m-60 -47 c0 -3
-6 -3 -12 0 -7 2 -19 -3 -26 -12 -11 -14 -12 -13 -2 6 6 14 16 20 25 17 8 -4
15 -8 15 -11z m-2845 -5 c5 4 5 1 1 -6 -6 -10 -11 -10 -22 -1 -8 6 -14 14 -14
16 0 3 6 0 13 -6 8 -6 18 -7 22 -3z m2779 -38 c-6 -6 -10 -3 -10 10 0 13 4 16
10 10 7 -7 7 -13 0 -20z m-2812 -34 c-10 -14 -22 -23 -25 -20 -5 5 35 52 42
48 2 -2 -6 -14 -17 -28z m2803 4 c3 -6 -1 -7 -9 -4 -18 7 -21 14 -7 14 6 0 13
-4 16 -10z m115 -5 c10 -12 8 -20 -9 -41 -12 -15 -21 -25 -22 -23 -6 32 -6 39
3 39 5 0 6 9 3 20 -7 23 7 26 25 5z m-2844 -37 c3 -4 -1 -5 -10 -4 -8 1 -18 5
-22 8 -3 4 1 5 10 4 8 -1 18 -5 22 -8z m2673 -24 c-7 -8 -6 -14 1 -19 5 -3 10
-1 10 5 0 6 14 1 31 -11 31 -22 31 -22 20 -1 -17 32 -14 48 7 29 13 -12 22
-13 37 -6 20 10 20 10 1 -5 -11 -9 -24 -16 -29 -16 -4 0 -6 -4 -3 -9 6 -8 -23
-39 -31 -33 -7 5 -35 -15 -33 -24 1 -5 -3 -10 -8 -12 -5 -1 -9 5 -9 14 0 9 9
19 19 22 24 6 23 17 -2 19 -13 1 -18 -2 -14 -9 5 -7 2 -8 -6 -3 -8 5 -11 4 -6
-3 7 -11 -19 -11 -30 1 -4 4 -13 2 -21 -4 -9 -9 -13 -8 -13 0 0 6 -5 11 -11
11 -5 0 -8 -4 -5 -8 2 -4 -5 -19 -15 -32 -20 -25 -20 -25 -9 -1 10 19 9 22 -2
18 -7 -2 -12 -10 -10 -16 1 -6 -2 -11 -8 -11 -13 0 -13 17 0 25 6 4 7 11 4 17
-4 7 -2 8 4 4 15 -9 54 18 45 30 -4 5 -1 3 7 -3 8 -7 19 -13 26 -13 6 0 11 6
10 13 0 6 2 12 5 12 16 0 37 28 32 43 -4 14 -3 15 5 2 7 -9 8 -18 1 -26z m38
17 c0 -11 -5 -18 -9 -15 -4 3 -5 11 -1 19 7 21 12 19 10 -4z m-147 -11 c0 -5
-2 -10 -4 -10 -3 0 -8 5 -11 10 -3 6 -1 10 4 10 6 0 11 -4 11 -10z m44 -16 c3
-8 2 -12 -4 -9 -6 3 -10 10 -10 16 0 14 7 11 14 -7z m-49 -24 c3 -5 1 -10 -4
-10 -6 0 -11 5 -11 10 0 6 2 10 4 10 3 0 8 -4 11 -10z m225 0 c0 -5 -2 -10 -4
-10 -3 0 -8 5 -11 10 -3 6 -1 10 4 10 6 0 11 -4 11 -10z m-260 -34 c0 -2 -12
-11 -27 -20 l-28 -17 24 20 c23 21 31 25 31 17z m103 -10 c4 -10 1 -13 -8 -9
-8 3 -12 9 -9 14 7 12 11 11 17 -5z m9 -26 c5 0 8 8 8 17 0 21 13 9 17 -16 3
-20 -21 -22 -59 -6 -12 5 -25 -2 -42 -20 -22 -23 -38 -31 -69 -34 -4 -1 -3
-10 3 -21 6 -11 15 -18 20 -15 6 3 7 -2 4 -12 -5 -15 -4 -15 4 -3 6 8 8 18 6
22 -3 4 -1 8 5 8 14 0 9 -39 -6 -44 -7 -3 -17 3 -22 12 -8 14 -10 14 -11 2 0
-12 -2 -13 -9 -1 -7 11 -10 9 -16 -8 -5 -17 -10 -19 -20 -11 -9 8 -14 6 -19
-6 -3 -9 -12 -14 -19 -11 -16 6 -41 -29 -27 -38 5 -3 6 -13 3 -21 -4 -11 -9
-12 -16 -5 -17 17 -26 13 -22 -8 2 -12 -2 -18 -13 -17 -9 0 -21 -9 -27 -21
-12 -28 -21 -29 -28 -4 -2 11 4 32 14 47 15 24 19 26 25 11 3 -9 10 -17 15
-17 4 0 6 7 3 15 -4 8 -1 22 5 29 9 11 9 15 -1 19 -7 2 -5 3 5 2 9 -2 17 1 17
6 0 9 -15 13 -33 10 -5 -1 -6 3 -2 9 4 7 12 7 26 0 18 -10 25 -3 20 23 -1 5 3
6 8 2 6 -3 7 -13 4 -22 -11 -28 13 -6 47 45 18 26 30 39 27 30 -3 -9 1 -22 9
-28 12 -10 13 -7 10 17 -1 17 -7 36 -12 44 -5 10 0 8 19 -3 30 -20 57 -23 57
-7 0 5 -4 7 -10 4 -5 -3 -10 -1 -10 5 0 7 7 10 15 6 9 -3 21 4 31 19 15 23 18
23 37 10 12 -8 25 -15 29 -15z m-122 -10 c0 -5 -2 -10 -4 -10 -3 0 -8 5 -11
10 -3 6 -1 10 4 10 6 0 11 -4 11 -10z m-2437 -27 c-5 -12 -3 -14 7 -8 9 5 11
4 6 -4 -10 -16 -25 -4 -23 19 1 10 5 17 9 14 4 -3 4 -12 1 -21z m2552 -18 c0
-22 -5 -29 -23 -32 -17 -2 -21 1 -16 9 6 9 3 9 -9 -1 -12 -10 -14 -18 -7 -31
14 -26 13 -29 -10 -25 -11 2 -20 -1 -20 -6 0 -6 -5 -7 -12 -3 -7 4 -8 3 -4 -5
4 -6 12 -9 17 -6 5 3 6 -1 3 -10 -5 -13 -9 -13 -23 -3 -12 9 -11 7 2 -9 10
-12 14 -24 9 -27 -6 -3 -13 2 -18 12 -16 35 -11 51 17 63 16 6 29 16 29 21 0
5 -5 6 -11 2 -6 -3 -4 5 6 19 11 17 13 27 5 32 -6 3 -9 1 -8 -7 2 -7 -3 -12
-11 -10 -7 1 -19 -3 -27 -9 -11 -9 -14 -8 -14 5 0 10 4 14 10 11 5 -3 23 8 41
24 38 37 73 30 74 -14z m-185 9 c0 -8 -19 -13 -24 -6 -3 5 1 9 9 9 8 0 15 -2
15 -3z m-2267 -19 c-3 -9 -8 -14 -10 -11 -3 3 -2 9 2 15 9 16 15 13 8 -4z
m-37 -33 c1 -7 0 -8 -3 -2 -9 18 -22 11 -18 -10 4 -23 -10 -27 -18 -6 -6 15
12 38 27 33 5 -2 11 -9 12 -15z m2218 10 c3 -5 -1 -9 -9 -9 -8 0 -12 4 -9 9 3
4 7 8 9 8 2 0 6 -4 9 -8z m265 -11 c2 -1 -2 -8 -9 -16 -10 -12 -10 -19 -2 -27
13 -13 16 -32 4 -24 -15 9 -37 -13 -37 -36 0 -26 -25 -32 -33 -8 -5 13 -3 13
14 0 19 -14 19 -14 0 8 -11 12 -14 22 -8 22 7 0 11 3 11 8 -3 19 2 33 10 27
15 -9 23 13 12 33 -8 16 -6 18 12 16 12 -1 24 -3 26 -3z m-2446 -26 c-3 -9 -8
-14 -10 -11 -3 3 -2 9 2 15 9 16 15 13 8 -4z m102 -24 c3 -5 2 -12 -3 -15 -5
-3 -9 1 -9 9 0 17 3 19 12 6z m40 -21 c3 -5 1 -10 -4 -10 -6 0 -11 5 -11 10 0
6 2 10 4 10 3 0 8 -4 11 -10z m-65 -20 c-8 -5 -19 -10 -25 -10 -5 0 -3 5 5 10
8 5 20 10 25 10 6 0 3 -5 -5 -10z m1950 0 c0 -5 -5 -10 -11 -10 -5 0 -7 5 -4
10 3 6 8 10 11 10 2 0 4 -4 4 -10z m81 -13 c-10 -9 -11 -8 -5 6 3 10 9 15 12
12 3 -3 0 -11 -7 -18z m-1946 3 c-4 -6 -1 -19 6 -28 12 -16 12 -16 -5 0 -16
14 -15 38 0 38 3 0 2 -5 -1 -10z m-30 -10 c3 -6 -1 -7 -9 -4 -18 7 -21 14 -7
14 6 0 13 -4 16 -10z m1862 -32 c-6 -4 -16 -8 -22 -8 -5 0 -4 4 4 9 8 5 11 16
7 27 -6 18 -5 17 9 0 12 -16 12 -22 2 -28z m-27 22 c0 -5 -4 -10 -10 -10 -5 0
-10 5 -10 10 0 6 5 10 10 10 6 0 10 -4 10 -10z m-1873 -22 c-3 -8 -6 -5 -6 6
-1 11 2 17 5 13 3 -3 4 -12 1 -19z m107 13 c3 -5 -2 -15 -12 -22 -15 -12 -16
-12 -5 2 7 9 10 19 6 22 -3 4 -4 7 0 7 3 0 8 -4 11 -9z m1643 -11 c1 -11 -2
-20 -7 -20 -6 0 -7 17 -1 38 3 8 7 -1 8 -18z m58 10 c-3 -5 -12 -10 -18 -10
-7 0 -6 4 3 10 19 12 23 12 15 0z m-1660 -39 c3 -5 2 -12 -3 -15 -5 -3 -9 1
-9 9 0 17 3 19 12 6z m34 -5 c9 -11 9 -16 -1 -22 -7 -4 -10 -4 -6 1 4 4 3 14
-3 22 -6 7 -9 13 -6 13 2 0 10 -6 16 -14z m1556 -4 c-3 -3 -11 0 -18 7 -9 10
-8 11 6 5 10 -3 15 -9 12 -12z m240 -4 l-6 -23 13 22 13 23 13 -21 c8 -13 9
-18 2 -14 -6 4 -17 2 -25 -5 -16 -13 -28 1 -19 24 9 24 16 19 9 -6z m-2113
-23 c3 3 8 -1 12 -10 4 -12 2 -14 -12 -7 -9 5 -22 7 -29 5 -6 -2 -14 1 -18 6
-3 6 -1 11 5 11 6 0 8 6 4 13 -4 6 2 4 13 -6 11 -9 22 -15 25 -12z m237 2 c0
-9 -2 -8 -6 1 -2 6 -10 9 -15 6 -7 -4 -8 -2 -4 5 9 13 26 5 25 -12z m1602 -4
c-12 -20 -14 -14 -5 12 4 9 9 14 11 11 3 -2 0 -13 -6 -23z m249 17 c0 -5 -2
-10 -4 -10 -3 0 -8 5 -11 10 -3 6 -1 10 4 10 6 0 11 -4 11 -10z m-1810 -20 c8
-5 11 -10 5 -10 -5 0 -17 5 -25 10 -8 5 -10 10 -5 10 6 0 17 -5 25 -10z m72
-8 c-7 -2 -9 -9 -5 -15 3 -7 2 -8 -2 -4 -16 14 -14 36 3 29 10 -4 12 -7 4 -10z
m-127 -2 c3 -5 1 -10 -4 -10 -6 0 -11 5 -11 10 0 6 2 10 4 10 3 0 8 -4 11 -10z
m72 -23 c-13 -29 -22 -33 -33 -15 -4 6 -3 8 3 5 5 -4 16 5 23 18 18 33 23 26
7 -8z m-32 13 c3 -5 2 -10 -4 -10 -5 0 -13 5 -16 10 -3 6 -2 10 4 10 5 0 13
-4 16 -10z m103 -15 c-6 -14 -13 -23 -15 -21 -5 5 15 46 22 46 3 0 -1 -11 -7
-25z m1376 16 c3 -5 -2 -15 -12 -22 -15 -12 -16 -12 -5 2 7 9 10 19 6 22 -3 4
-4 7 0 7 3 0 8 -4 11 -9z m56 5 c0 -2 -7 -7 -16 -10 -8 -3 -12 -2 -9 4 6 10
25 14 25 6z m245 -45 c1 -12 -4 -18 -14 -16 -9 1 -19 -3 -23 -9 -4 -6 -10 -7
-15 -3 -4 5 -2 11 4 15 7 4 10 16 9 27 -2 11 -1 24 1 28 8 13 36 -19 38 -42z
m-1992 -6 c12 -21 16 -24 15 -10 -2 13 3 20 15 20 9 0 16 -4 15 -10 -2 -5 -7
-8 -13 -7 -5 2 -7 0 -3 -4 4 -4 2 -14 -5 -23 -10 -14 -10 -14 3 -4 16 12 80 8
120 -7 3 -1 10 -2 15 -1 6 1 2 -5 -8 -13 -10 -8 -14 -16 -10 -18 4 -3 2 -3 -6
-1 -7 2 -19 -2 -27 -7 -9 -9 -15 -6 -23 9 -13 24 -45 17 -37 -8 5 -14 -15 7
-54 55 -5 7 -14 14 -20 16 -5 1 -12 13 -14 25 -7 32 15 25 37 -12z m437 21 c0
-2 -8 -10 -17 -17 -16 -13 -17 -12 -4 4 13 16 21 21 21 13z m98 -41 c-3 -3 -9
2 -12 12 -6 14 -5 15 5 6 7 -7 10 -15 7 -18z m1119 -2 c-3 -2 -14 0 -24 7 -16
10 -16 11 0 6 9 -3 17 0 18 7 0 8 2 8 6 -1 3 -7 3 -16 0 -19z m-1417 7 c0 -5
-2 -10 -4 -10 -3 0 -8 5 -11 10 -3 6 -1 10 4 10 6 0 11 -4 11 -10z m1314 -6
c3 -8 2 -12 -4 -9 -6 3 -10 10 -10 16 0 14 7 11 14 -7z m-1134 2 c0 -2 -7 -7
-16 -10 -8 -3 -12 -2 -9 4 6 10 25 14 25 6z m837 -21 c0 -8 -4 -12 -9 -9 -5 3
-6 10 -3 15 9 13 12 11 12 -6z m38 -3 c-3 -3 -11 0 -18 7 -9 10 -8 11 6 5 10
-3 15 -9 12 -12z m60 8 c3 -5 1 -10 -4 -10 -6 0 -11 5 -11 10 0 6 2 10 4 10 3
0 8 -4 11 -10z m582 -25 c-1 -1 -15 -9 -31 -19 -16 -10 -26 -13 -22 -8 4 6 -2
15 -11 21 -10 5 -14 13 -10 17 5 5 12 3 16 -5 6 -10 10 -9 14 3 6 14 10 14 26
4 11 -7 19 -13 18 -13z m-1384 1 c4 -10 1 -13 -8 -9 -8 3 -12 9 -9 14 7 12 11
11 17 -5z m61 6 c3 -5 -1 -9 -9 -9 -8 0 -12 4 -9 9 3 4 7 8 9 8 2 0 6 -4 9 -8z
m782 -1 c-4 -5 0 -12 6 -15 7 -3 2 -3 -11 0 -15 4 -21 2 -17 -4 3 -6 2 -13 -3
-16 -5 -4 -8 1 -7 10 1 8 9 20 17 25 18 11 22 11 15 0z m-65 -24 c-10 -9 -11
-8 -5 6 3 10 9 15 12 12 3 -3 0 -11 -7 -18z m-1098 4 c4 -1 7 -5 7 -10 0 -5
-8 -8 -17 -6 -10 2 -24 4 -31 4 -7 1 -11 5 -8 10 4 5 14 8 24 6 9 -2 20 -4 25
-4z m472 -9 c-3 -3 -11 0 -18 7 -9 10 -8 11 6 5 10 -3 15 -9 12 -12z m273 -19
c19 -18 29 -8 12 12 -7 9 -10 18 -6 22 3 3 6 1 6 -5 0 -6 8 -9 18 -6 14 5 15
4 2 -5 -8 -6 -12 -11 -7 -11 12 0 15 -1 47 -10 29 -8 53 3 28 13 -9 4 -10 6
-1 6 6 1 15 -3 18 -9 3 -5 12 -10 18 -10 7 1 2 9 -11 20 -21 18 -22 19 -3 17
11 -1 18 -3 16 -6 -3 -2 0 -10 5 -16 8 -9 3 -18 -17 -31 -31 -20 -56 -27 -47
-13 3 5 10 6 16 3 7 -4 8 -2 4 4 -4 6 -13 9 -20 6 -8 -3 -17 0 -21 5 -3 6 -11
8 -17 5 -6 -4 -23 -7 -37 -8 -14 -1 -36 -11 -49 -24 -12 -12 -27 -20 -33 -16
-7 4 1 14 18 25 15 10 24 19 19 19 -6 0 -5 5 2 12 9 9 7 15 -6 25 -15 12 -14
13 8 2 13 -7 31 -18 38 -26z m199 31 c-8 -8 -48 -13 -43 -6 2 4 14 8 26 9 12
1 20 0 17 -3z m63 -2 c0 -5 -7 -9 -15 -9 -8 0 -12 4 -9 9 3 4 9 8 15 8 5 0 9
-4 9 -8z m-846 -31 c-3 -43 -4 -47 -14 -31 -5 8 -7 24 -4 35 4 18 4 18 -6 2
-11 -17 -30 -15 -30 4 0 6 4 8 9 4 5 -3 12 -2 15 3 12 19 32 8 30 -17z m41 11
c-3 -3 -11 0 -18 7 -9 10 -8 11 6 5 10 -3 15 -9 12 -12z m-151 -3 c-2 -4 3 -9
11 -13 8 -3 19 3 24 12 6 9 11 12 11 6 0 -5 -6 -18 -12 -27 -12 -16 -15 -15
-42 6 -25 20 -26 23 -8 23 11 0 19 -3 16 -7z m501 1 c3 -5 1 -10 -4 -10 -6 0
-11 5 -11 10 0 6 2 10 4 10 3 0 8 -4 11 -10z m415 -5 c0 -8 -2 -15 -4 -15 -2
0 -6 7 -10 15 -3 8 -1 15 4 15 6 0 10 -7 10 -15z m350 -39 c0 -7 -4 -6 -9 2
-7 11 -10 10 -15 -3 -3 -9 -3 -22 1 -27 3 -7 1 -8 -6 -4 -6 4 -9 19 -7 32 4
21 2 23 -9 14 -8 -6 -11 -19 -8 -28 6 -15 5 -16 -12 -2 -10 8 -26 16 -37 16
-33 2 -33 4 -8 18 14 7 29 9 35 4 11 -10 25 -11 24 0 -3 20 3 21 26 6 14 -9
25 -21 25 -28z m155 4 c0 -9 -10 -15 -25 -15 -14 0 -30 -7 -37 -15 -7 -8 -13
-11 -13 -6 0 5 -8 2 -17 -5 -14 -12 -14 -10 1 14 10 15 15 27 12 27 -4 0 -5 4
-2 8 9 15 81 8 81 -8z m-311 1 c3 -5 -1 -11 -9 -14 -9 -4 -12 -1 -8 9 6 16 10
17 17 5z m207 -8 c7 -10 9 -15 5 -11 -5 4 -16 2 -25 -5 -14 -10 -14 -10 -4 4
7 9 10 19 6 22 -3 4 -4 7 -1 7 3 0 12 -8 19 -17z m-261 -8 c0 -2 -9 -3 -19 -2
-11 0 -18 5 -15 9 4 6 34 0 34 -7z m100 -26 c0 -5 -7 -9 -15 -9 -15 0 -20 12
-9 23 8 8 24 -1 24 -14z m30 -44 c-7 -9 -15 -13 -17 -11 -7 7 7 26 19 26 6 0
6 -6 -2 -15z"/>
<path d="M4264 1753 c-2 -23 -1 -24 16 -6 18 19 18 26 -3 29 -7 1 -13 -9 -13
-23z"/>
<path d="M4310 1762 c0 -5 7 -9 15 -9 8 0 12 4 9 9 -3 4 -9 8 -15 8 -5 0 -9
-4 -9 -8z"/>
<path d="M4070 1600 c0 -5 7 -10 16 -10 8 0 12 5 9 10 -3 6 -10 10 -16 10 -5
0 -9 -4 -9 -10z"/>
<path d="M4050 1582 c0 -4 10 -9 22 -9 18 -2 20 0 8 7 -18 12 -30 13 -30 2z"/>
<path d="M3986 1522 c-11 -15 -16 -24 -11 -20 4 4 15 2 24 -5 14 -10 14 -10 4
4 -10 12 -10 18 -1 27 6 6 10 14 7 16 -2 2 -13 -8 -23 -22z"/>
<path d="M3925 1470 c-3 -5 -3 -10 2 -10 4 0 1 -5 -7 -10 -8 -5 -10 -10 -4
-10 17 0 37 27 25 34 -5 4 -12 2 -16 -4z"/>
<path d="M4203 1655 c-9 -10 -6 -15 13 -24 31 -14 44 -14 24 -1 -13 9 -13 11
0 21 13 9 13 10 -2 6 -9 -3 -18 -2 -20 3 -2 4 -8 2 -15 -5z"/>
<path d="M3773 1347 c0 -8 6 -14 14 -14 9 0 10 4 2 14 -6 7 -12 13 -14 13 -1
0 -2 -6 -2 -13z"/>
<path d="M1790 1321 c0 -6 4 -13 10 -16 6 -3 7 1 4 9 -7 18 -14 21 -14 7z"/>
<path d="M1854 1268 c-3 -5 -3 -12 0 -15 3 -4 6 -1 6 4 0 15 24 11 44 -7 15
-11 19 -11 32 2 11 11 12 15 2 16 -7 1 -28 3 -46 5 -18 3 -35 0 -38 -5z m71
-16 c-3 -3 -11 0 -18 7 -9 10 -8 11 6 5 10 -3 15 -9 12 -12z"/>
<path d="M3706 1253 c-6 -14 -5 -15 5 -6 7 7 10 15 7 18 -3 3 -9 -2 -12 -12z"/>
<path d="M2756 1212 c-3 -5 1 -9 9 -9 8 0 12 4 9 9 -3 4 -7 8 -9 8 -2 0 -6 -4
-9 -8z"/>
<path d="M3266 1192 c-3 -5 1 -9 9 -9 8 0 12 4 9 9 -3 4 -7 8 -9 8 -2 0 -6 -4
-9 -8z"/>
<path d="M3446 1179 c4 -8 30 -6 38 2 3 3 -5 5 -19 5 -13 0 -22 -3 -19 -7z"/>
<path d="M1798 4519 c6 -9 8 -19 4 -24 -4 -4 3 -2 16 4 24 13 31 26 8 18 -7
-3 -20 0 -27 6 -11 10 -11 9 -1 -4z"/>
<path d="M1525 4159 c-4 -6 -5 -12 -2 -15 2 -3 7 2 10 11 7 17 1 20 -8 4z"/>
<path d="M1484 3998 c-11 -18 -12 -48 -2 -42 5 4 7 12 4 19 -2 7 1 18 7 24 6
6 8 11 5 11 -4 0 -10 -6 -14 -12z"/>
<path d="M1446 3902 c-3 -5 1 -9 9 -9 8 0 12 4 9 9 -3 4 -7 8 -9 8 -2 0 -6 -4
-9 -8z"/>
<path d="M1430 3836 c0 -2 8 -10 18 -17 15 -13 16 -12 3 4 -13 16 -21 21 -21
13z"/>
<path d="M1396 3822 c-3 -5 1 -9 9 -9 8 0 12 4 9 9 -3 4 -7 8 -9 8 -2 0 -6 -4
-9 -8z"/>
<path d="M1436 3673 c10 -7 12 -13 6 -13 -7 0 -12 -5 -12 -11 0 -19 25 -3 26
17 1 13 -5 20 -18 20 -18 0 -18 -1 -2 -13z"/>
<path d="M1356 3578 c3 -5 10 -6 15 -3 13 9 11 12 -6 12 -8 0 -12 -4 -9 -9z"/>
<path d="M1360 3509 c0 -5 -6 -7 -12 -3 -7 4 -9 3 -5 -1 13 -15 36 -14 30 1
-6 17 -13 18 -13 3z"/>
<path d="M1316 3493 c-6 -14 -5 -15 5 -6 7 7 10 15 7 18 -3 3 -9 -2 -12 -12z"/>
<path d="M1345 3449 c-4 -6 -4 -13 -1 -16 3 -4 6 -1 6 6 0 7 5 9 12 5 7 -4 8
-3 4 4 -9 15 -13 15 -21 1z"/>
<path d="M5505 3429 c-6 -17 -9 -19 -17 -8 -8 11 -9 11 -5 -3 3 -9 3 -19 -1
-23 -4 -4 -7 -12 -7 -18 0 -7 -11 -11 -23 -10 -13 2 -21 -1 -17 -7 3 -6 14
-10 23 -10 14 0 15 -2 2 -9 -8 -6 -19 -7 -25 -3 -5 3 -4 -1 3 -10 10 -13 10
-17 -2 -21 -9 -4 -18 -2 -20 2 -5 7 -31 8 -57 2 -3 0 -11 -13 -17 -27 -7 -14
-8 -23 -2 -19 5 3 10 2 10 -3 0 -5 -11 -14 -25 -20 -14 -6 -26 -15 -26 -19 -8
-47 -10 -61 -10 -76 0 -9 -4 -15 -8 -12 -5 2 -14 -2 -20 -9 -9 -11 -9 -17 2
-28 12 -11 12 -16 0 -34 -12 -19 -11 -23 11 -38 21 -13 24 -13 20 -2 -3 8 -12
16 -20 18 -12 3 -12 6 2 26 11 16 22 21 37 17 17 -5 19 -4 7 4 -8 5 -11 13 -7
18 5 4 18 -3 29 -17 l20 -25 -16 28 c-9 15 -12 27 -7 27 6 0 15 -8 20 -17 6
-10 11 -13 11 -6 0 6 -4 15 -10 18 -5 3 -10 13 -10 21 0 8 4 14 10 14 6 0 9
-6 8 -12 -2 -9 10 -13 39 -12 35 1 41 -2 40 -17 -1 -19 -17 -28 -17 -10 0 5
-12 8 -27 8 -16 0 -22 -2 -15 -4 6 -3 12 -9 12 -14 0 -6 -4 -8 -8 -5 -5 3 -16
-4 -25 -15 -9 -10 -12 -19 -7 -19 6 0 13 7 16 15 9 23 26 6 18 -18 -3 -12 -3
-19 1 -14 7 6 10 19 14 61 1 5 8 3 16 -4 12 -10 20 -9 41 5 33 21 44 11 14
-13 -16 -13 -20 -21 -11 -26 6 -4 10 -3 9 3 -2 5 6 16 17 25 16 12 18 17 8 27
-10 10 -16 10 -25 1 -19 -19 -33 -14 -16 6 9 9 14 22 12 27 -3 6 5 11 17 12
16 2 18 -1 10 -11 -9 -10 -8 -15 3 -19 10 -4 13 -1 9 9 -3 8 -2 14 3 12 13 -4
55 28 47 35 -3 4 -11 7 -16 7 -6 0 -8 -3 -4 -6 8 -8 -16 -33 -26 -27 -4 3 -3
11 4 19 8 10 8 14 0 14 -6 0 -11 -5 -11 -12 0 -6 -6 -3 -14 7 -12 16 -16 17
-30 6 -19 -16 -21 -3 -2 22 14 18 32 24 21 7 -3 -5 -3 -10 2 -11 4 0 22 -2 38
-4 17 -1 24 -1 18 2 -7 2 -13 9 -13 14 0 6 9 5 23 -1 20 -10 20 -10 5 3 -10 8
-14 18 -10 23 4 4 0 3 -9 -4 -16 -12 -29 -7 -29 10 0 5 4 7 9 3 5 -3 13 -1 16
5 4 6 3 10 -2 9 -26 -4 -24 3 5 21 17 11 32 25 31 32 0 10 -2 10 -6 0 -4 -11
-54 -42 -67 -42 -3 0 -3 7 0 15 4 8 9 13 13 11 11 -7 34 11 37 28 1 8 -7 18
-17 21 -11 4 -17 11 -13 16 3 5 10 6 16 3 7 -5 8 -2 3 5 -5 9 -10 10 -18 2
-16 -16 -32 -14 -18 2 6 8 7 18 3 22 -4 5 2 5 13 1 15 -6 17 -4 8 5 -6 6 -9
18 -6 25 3 8 3 14 0 14 -3 0 -9 -10 -12 -21z m29 -96 c3 -6 -2 -14 -11 -17
-11 -5 -14 -2 -9 9 3 9 2 14 -3 10 -5 -3 -11 -2 -14 2 -2 5 -2 2 0 -5 1 -7 -2
-22 -7 -33 -9 -15 -7 -21 5 -25 11 -5 13 -10 5 -19 -8 -9 -6 -14 5 -19 9 -3
13 -11 10 -17 -5 -6 -12 -4 -21 8 -13 17 -15 16 -39 -12 -15 -16 -24 -24 -20
-18 4 8 1 11 -8 7 -8 -3 -14 2 -14 11 0 18 9 19 24 4 7 -7 12 -6 17 6 3 9 2
13 -4 10 -5 -3 -18 -1 -27 5 -16 10 -15 11 5 7 12 -3 22 -1 22 3 0 5 9 7 20 5
11 -2 20 0 20 4 0 4 -18 8 -40 7 -22 0 -40 -5 -40 -10 0 -4 -7 -5 -16 -2 -10
4 -13 2 -8 -6 5 -7 3 -8 -6 -3 -8 5 -11 4 -6 -3 3 -6 -2 -15 -11 -21 -10 -6
-12 -11 -5 -11 6 0 12 -5 12 -11 0 -5 -5 -7 -11 -3 -6 3 -3 -5 6 -20 17 -26
18 -26 32 -6 8 11 19 20 25 20 6 0 5 -7 -4 -17 -9 -10 -14 -23 -12 -28 3 -6
-5 -11 -16 -12 -11 -1 -18 2 -15 7 3 5 1 11 -5 15 -5 3 -27 -10 -47 -30 -29
-29 -39 -33 -41 -21 -2 9 -9 13 -15 10 -7 -4 -8 -3 -4 2 5 5 14 9 20 9 7 0 12
7 12 15 1 8 6 24 12 35 10 17 14 18 25 6 11 -12 11 -13 -1 -6 -9 5 -12 4 -7
-3 12 -20 24 -13 22 12 -1 18 -6 23 -23 21 -14 -1 -20 2 -16 12 4 10 9 11 18
3 9 -8 15 -8 20 0 3 5 0 10 -7 10 -7 1 -4 6 7 13 11 7 21 20 23 31 2 12 -1 16
-9 10 -8 -4 -10 -3 -5 4 4 6 14 8 23 5 10 -4 14 -2 10 4 -7 12 11 12 28 1 6
-3 21 0 35 8 14 7 21 13 17 14 -5 0 -5 6 0 13 4 6 8 15 9 20 1 4 2 9 3 11 2 8
51 -19 55 -31z m-127 -108 c0 -8 -4 -15 -9 -15 -4 0 -8 -5 -8 -11 0 -5 6 -7
13 -3 8 5 8 3 -2 -9 -16 -20 -28 -15 -26 10 2 35 32 61 32 28z m83 -49 c0 -9
-9 -13 -25 -11 -14 1 -28 -2 -32 -8 -3 -6 -1 -7 4 -4 6 4 17 0 24 -9 11 -14
10 -15 -7 -12 -30 5 -44 21 -31 36 5 7 16 11 23 8 7 -3 16 -1 19 4 9 15 25 12
25 -4z"/>
<path d="M5471 3323 c3 -18 -2 -34 -9 -29 -4 2 -14 1 -22 -4 -8 -5 -19 -5 -26
1 -7 6 -17 2 -28 -10 -17 -19 -6 -24 19 -10 6 4 18 5 28 4 9 -2 17 1 17 6 0 6
4 8 9 4 6 -3 15 3 21 14 7 14 7 22 0 26 -6 4 -10 3 -9 -2z"/>
<path d="M5309 3164 c-1 -5 -1 -13 0 -18 1 -4 -4 -15 -11 -24 -12 -13 -11 -14
8 -2 21 13 25 32 11 46 -4 4 -8 3 -8 -2z"/>
<path d="M1296 3398 c3 -5 10 -6 15 -3 13 9 11 12 -6 12 -8 0 -12 -4 -9 -9z"/>
<path d="M5571 3283 c3 -20 -2 -27 -11 -13 -5 8 -10 10 -10 4 0 -5 7 -19 16
-30 8 -10 13 -13 9 -6 -4 7 -2 19 5 27 8 9 8 15 0 20 -6 4 -10 3 -9 -2z"/>
<path d="M1269 3223 c-13 -16 -12 -17 4 -4 16 13 21 21 13 21 -2 0 -10 -8 -17
-17z"/>
<path d="M5595 3169 c-4 -6 -5 -12 -2 -15 2 -3 7 2 10 11 7 17 1 20 -8 4z"/>
<path d="M5570 3151 c0 -7 -4 -9 -10 -6 -6 4 -7 -1 -3 -11 6 -15 7 -15 15 1 6
9 7 19 4 22 -3 4 -6 1 -6 -6z"/>
<path d="M1255 3141 c-3 -5 -2 -12 3 -15 5 -3 9 1 9 9 0 17 -3 19 -12 6z"/>
<path d="M5527 3115 c-4 -8 -2 -17 2 -19 9 -6 51 1 60 9 3 3 -10 3 -28 0 -30
-5 -33 -4 -21 10 7 8 8 15 2 15 -5 0 -12 -7 -15 -15z"/>
<path d="M5575 3079 c-6 -8 -4 -10 5 -4 10 6 12 4 6 -11 -6 -15 -5 -17 5 -6 9
9 10 15 2 23 -8 8 -13 7 -18 -2z"/>
<path d="M5510 3070 c0 -5 5 -10 10 -10 6 0 10 5 10 10 0 6 -4 10 -10 10 -5 0
-10 -4 -10 -10z"/>
<path d="M5546 3063 c-6 -14 -5 -15 5 -6 7 7 10 15 7 18 -3 3 -9 -2 -12 -12z"/>
<path d="M5290 3060 c0 -5 5 -10 10 -10 6 0 10 5 10 10 0 6 -4 10 -10 10 -5 0
-10 -4 -10 -10z"/>
<path d="M5491 3054 c0 -11 3 -14 6 -6 3 7 2 16 -1 19 -3 4 -6 -2 -5 -13z"/>
<path d="M5414 3039 c-4 -7 -3 -9 4 -5 5 3 12 0 15 -6 2 -7 7 -10 11 -7 4 3 0
12 -8 18 -11 9 -16 9 -22 0z"/>
<path d="M5461 3030 c14 -31 19 -36 19 -24 0 6 -7 19 -16 30 -14 18 -14 18 -3
-6z"/>
<path d="M5510 3040 c0 -5 5 -10 10 -10 6 0 10 5 10 10 0 6 -4 10 -10 10 -5 0
-10 -4 -10 -10z"/>
<path d="M5317 3029 c7 -7 15 -10 18 -7 3 3 -2 9 -12 12 -14 6 -15 5 -6 -5z"/>
<path d="M5367 3026 c-3 -8 0 -17 7 -19 10 -4 12 1 9 14 -6 23 -9 24 -16 5z"/>
<path d="M5536 3025 c-9 -26 -7 -32 5 -12 6 10 9 21 6 23 -2 3 -7 -2 -11 -11z"/>
<path d="M5220 3020 c-8 -5 -10 -10 -5 -10 6 0 17 5 25 10 8 5 11 10 5 10 -5
0 -17 -5 -25 -10z"/>
<path d="M5235 3001 c-3 -5 0 -13 6 -17 7 -4 9 -3 5 4 -3 5 0 13 6 15 9 4 10
6 1 6 -6 1 -14 -3 -18 -8z"/>
<path d="M5314 2982 c0 -17 5 -29 13 -29 9 0 10 4 3 12 -6 7 -8 20 -4 29 3 9
2 16 -3 16 -5 0 -9 -13 -9 -28z"/>
<path d="M5397 2995 c-4 -8 -3 -16 1 -19 4 -3 9 4 9 15 2 23 -3 25 -10 4z"/>
<path d="M5510 3005 c0 -5 5 -17 10 -25 5 -8 10 -10 10 -5 0 6 -5 17 -10 25
-5 8 -10 11 -10 5z"/>
<path d="M5197 2993 c-11 -11 -8 -20 7 -20 8 0 12 6 9 14 -6 15 -7 15 -16 6z"/>
<path d="M5595 2990 c-4 -6 -10 -8 -15 -5 -5 3 -11 1 -14 -4 -8 -13 22 -7 36
7 7 7 9 12 6 12 -4 0 -10 -5 -13 -10z"/>
<path d="M5256 2973 c-6 -14 -5 -15 5 -6 7 7 10 15 7 18 -3 3 -9 -2 -12 -12z"/>
<path d="M5424 2970 c0 -9 6 -17 12 -17 7 0 10 6 7 13 -3 9 3 12 23 8 16 -3
25 -2 22 2 -4 3 -20 7 -35 9 -21 2 -29 -2 -29 -15z"/>
<path d="M1215 2960 c-3 -6 1 -7 9 -4 18 7 21 14 7 14 -6 0 -13 -4 -16 -10z"/>
<path d="M5353 2945 c0 -8 4 -15 9 -15 4 0 8 4 8 9 0 6 -4 12 -8 15 -5 3 -9
-1 -9 -9z"/>
<path d="M5130 2945 c0 -5 5 -17 10 -25 5 -8 10 -10 10 -5 0 6 -5 17 -10 25
-5 8 -10 11 -10 5z"/>
<path d="M5535 2941 c-3 -5 -2 -12 3 -15 5 -3 9 1 9 9 0 17 -3 19 -12 6z"/>
<path d="M5190 2926 c0 -2 7 -7 16 -10 8 -3 12 -2 9 4 -6 10 -25 14 -25 6z"/>
<path d="M5256 2918 c3 -5 10 -6 15 -3 13 9 11 12 -6 12 -8 0 -12 -4 -9 -9z"/>
<path d="M5633 2915 c0 -8 4 -12 9 -9 5 3 6 10 3 15 -9 13 -12 11 -12 -6z"/>
<path d="M5454 2909 c-3 -6 -2 -15 3 -20 5 -5 9 -1 9 11 0 23 -2 24 -12 9z"/>
<path d="M5590 2906 c0 -2 7 -7 16 -10 8 -3 12 -2 9 4 -6 10 -25 14 -25 6z"/>
<path d="M5430 2881 c0 -6 4 -13 10 -16 6 -3 7 1 4 9 -7 18 -14 21 -14 7z"/>
<path d="M5522 2878 c-15 -15 -15 -28 0 -28 6 0 8 3 5 7 -4 3 -2 12 4 20 14
16 7 17 -9 1z"/>
<path d="M5095 2861 c-6 -11 9 -23 19 -14 9 9 7 23 -3 23 -6 0 -12 -4 -16 -9z"/>
<path d="M5560 2865 c0 -2 6 -8 13 -14 10 -8 14 -7 14 2 0 8 -6 14 -14 14 -7
0 -13 -1 -13 -2z"/>
<path d="M5425 2839 c-3 -4 2 -6 10 -5 21 3 28 13 10 13 -9 0 -18 -4 -20 -8z"/>
<path d="M5359 2813 c-13 -16 -12 -17 4 -4 9 7 17 15 17 17 0 8 -8 3 -21 -13z"/>
<path d="M5497 2815 c-4 -8 -3 -16 1 -19 4 -3 9 4 9 15 2 23 -3 25 -10 4z"/>
<path d="M5170 2800 c0 -5 5 -10 11 -10 5 0 7 5 4 10 -3 6 -8 10 -11 10 -2 0
-4 -4 -4 -10z"/>
<path d="M5293 2795 c0 -8 4 -12 9 -9 5 3 6 10 3 15 -9 13 -12 11 -12 -6z"/>
<path d="M5530 2800 c0 -5 5 -10 11 -10 5 0 7 5 4 10 -3 6 -8 10 -11 10 -2 0
-4 -4 -4 -10z"/>
<path d="M5566 2798 c3 -5 10 -6 15 -3 13 9 11 12 -6 12 -8 0 -12 -4 -9 -9z"/>
<path d="M5110 2785 c-7 -9 -11 -17 -9 -20 3 -2 10 5 17 15 14 24 10 26 -8 5z"/>
<path d="M5430 2765 c0 -7 30 -13 34 -7 3 4 -4 9 -15 9 -10 1 -19 0 -19 -2z"/>
<path d="M1251 2696 c-8 -10 -9 -16 -1 -21 5 -3 10 -5 11 -3 4 18 7 38 4 38
-1 0 -8 -6 -14 -14z"/>
<path d="M5399 2693 c-13 -17 -13 -17 6 -3 11 8 22 16 24 17 2 2 0 3 -6 3 -6
0 -17 -8 -24 -17z"/>
<path d="M5046 2672 c-3 -6 -2 -13 4 -17 6 -4 8 -10 6 -14 -3 -4 5 -13 17 -21
20 -12 21 -12 7 4 -12 16 -11 20 10 38 20 15 21 17 4 9 -14 -7 -24 -7 -31 0
-7 7 -13 7 -17 1z"/>
<path d="M5106 2622 c-3 -5 1 -9 9 -9 8 0 12 4 9 9 -3 4 -7 8 -9 8 -2 0 -6 -4
-9 -8z"/>
<path d="M5060 2603 c7 -3 5 -9 -5 -17 -13 -9 -11 -11 14 -13 20 -1 31 4 36
15 5 14 4 15 -6 5 -16 -16 -30 -17 -26 -2 1 6 -4 13 -11 15 -7 1 -8 0 -2 -3z"/>
<path d="M5095 2549 c-4 -6 -5 -12 -2 -15 2 -3 7 2 10 11 7 17 1 20 -8 4z"/>
<path d="M5466 2498 c3 -5 10 -6 15 -3 13 9 11 12 -6 12 -8 0 -12 -4 -9 -9z"/>
<path d="M5015 2440 c3 -5 8 -10 11 -10 2 0 4 5 4 10 0 6 -5 10 -11 10 -5 0
-7 -4 -4 -10z"/>
<path d="M5035 2420 c-3 -5 -1 -10 4 -10 6 0 11 5 11 10 0 6 -2 10 -4 10 -3 0
-8 -4 -11 -10z"/>
<path d="M4975 2360 c-3 -5 -1 -10 4 -10 6 0 11 5 11 10 0 6 -2 10 -4 10 -3 0
-8 -4 -11 -10z"/>
<path d="M5014 2362 c3 -6 -2 -15 -11 -21 -10 -6 -13 -11 -7 -11 20 0 37 27
23 36 -7 4 -9 3 -5 -4z"/>
<path d="M1273 2325 c0 -8 4 -12 9 -9 12 8 10 -10 -4 -26 -11 -12 -10 -12 3
-2 12 9 20 8 35 -4 19 -15 19 -15 -2 -11 -12 3 -21 -1 -21 -8 0 -10 7 -11 24
-4 15 5 23 5 23 -2 0 -6 5 -7 11 -4 6 5 4 12 -8 21 -13 10 -14 13 -4 14 11 0
10 5 -4 20 -10 11 -22 17 -27 14 -5 -3 -15 -1 -22 5 -9 8 -13 7 -13 -4z m56
-28 c0 -9 -2 -8 -6 1 -2 6 -10 9 -15 6 -7 -4 -8 -2 -4 5 9 13 26 5 25 -12z"/>
<path d="M4866 2325 c4 -8 10 -12 15 -9 11 6 2 24 -11 24 -5 0 -7 -7 -4 -15z"/>
<path d="M4936 2318 c3 -4 11 -5 19 -1 21 7 19 12 -4 10 -11 0 -18 -5 -15 -9z"/>
<path d="M4936 2273 c-6 -14 -5 -15 5 -6 7 7 10 15 7 18 -3 3 -9 -2 -12 -12z"/>
<path d="M4935 2240 c3 -5 8 -10 11 -10 2 0 4 5 4 10 0 6 -5 10 -11 10 -5 0
-7 -4 -4 -10z"/>
<path d="M4820 2180 c-12 -7 -10 -9 7 -7 12 0 19 5 17 9 -6 10 -6 10 -24 -2z"/>
<path d="M4785 2147 c-14 -11 -15 -16 -5 -22 9 -6 11 -4 5 5 -6 9 -4 12 7 8 9
-4 15 0 15 8 0 17 1 17 -22 1z"/>
<path d="M1370 2100 c0 -11 2 -20 4 -20 2 0 6 9 9 20 3 11 1 20 -4 20 -5 0 -9
-9 -9 -20z"/>
<path d="M4755 2100 c-5 -8 42 -7 49 1 3 3 -6 5 -20 5 -14 0 -27 -3 -29 -6z"/>
<path d="M1430 2080 c0 -5 5 -10 11 -10 5 0 7 5 4 10 -3 6 -8 10 -11 10 -2 0
-4 -4 -4 -10z"/>
<path d="M1356 2058 c3 -5 10 -6 15 -3 13 9 11 12 -6 12 -8 0 -12 -4 -9 -9z"/>
<path d="M4650 2066 c0 -2 7 -7 16 -10 8 -3 12 -2 9 4 -6 10 -25 14 -25 6z"/>
<path d="M4637 2043 c-4 -3 -7 -11 -7 -17 0 -6 5 -5 12 2 6 6 9 14 7 17 -3 3
-9 2 -12 -2z"/>
<path d="M4726 2038 c3 -5 10 -6 15 -3 13 9 11 12 -6 12 -8 0 -12 -4 -9 -9z"/>
<path d="M1426 2024 c-20 -20 -20 -23 1 -20 9 2 17 10 19 19 3 21 0 21 -20 1z"/>
<path d="M4511 2021 c-9 -6 -10 -11 -3 -15 6 -4 8 -14 5 -23 -4 -11 -3 -14 6
-9 7 5 10 14 7 21 -5 14 11 15 32 2 7 -5 12 -4 12 2 0 10 -7 13 -26 10 -4 0
-10 4 -13 10 -4 5 -12 6 -20 2z"/>
<path d="M4580 1992 c0 -6 5 -14 10 -17 6 -4 7 -11 4 -17 -4 -7 -2 -8 5 -4 9
6 9 12 -1 24 -7 10 -14 19 -15 21 -2 2 -3 -1 -3 -7z"/>
<path d="M1415 1980 c3 -5 8 -10 11 -10 2 0 4 5 4 10 0 6 -5 10 -11 10 -5 0
-7 -4 -4 -10z"/>
<path d="M4548 1948 c-10 -10 -14 -18 -9 -18 10 0 36 29 30 34 -2 1 -12 -6
-21 -16z"/>
<path d="M1477 1931 c-4 -15 -11 -18 -28 -14 -17 4 -14 0 11 -15 30 -17 37
-18 50 -6 13 12 12 17 -6 35 -21 21 -21 21 -27 0z m18 -11 c-3 -5 -1 -10 5
-10 6 0 8 -5 4 -12 -6 -9 -9 -9 -12 0 -2 7 -9 9 -15 5 -7 -4 -6 1 2 10 15 18
26 23 16 7z"/>
<path d="M1434 1870 c0 -9 5 -17 11 -17 6 0 11 8 11 17 0 9 -5 17 -11 17 -6 0
-11 -8 -11 -17z"/>
<path d="M4550 1876 c0 -2 8 -10 18 -17 15 -13 16 -12 3 4 -13 16 -21 21 -21
13z"/>
<path d="M1458 1822 c-5 -18 -3 -20 10 -13 20 10 45 3 37 -9 -3 -5 -13 -6 -23
-3 -13 4 -13 2 3 -10 18 -15 18 -16 3 -17 -10 0 -18 -4 -18 -10 0 -5 8 -7 18
-3 14 5 15 3 5 -8 -7 -7 -13 -17 -13 -23 0 -5 6 -2 13 8 13 17 14 17 28 0 12
-16 12 -17 -3 -12 -16 7 -35 -18 -23 -30 3 -3 5 0 5 6 0 7 7 12 15 12 8 0 15
-5 15 -11 0 -5 -6 -7 -12 -3 -7 4 -10 4 -6 -1 4 -4 0 -22 -8 -39 -10 -21 -11
-26 -2 -15 11 13 17 14 29 5 9 -6 14 -17 12 -23 -3 -7 1 -13 8 -13 7 0 9 -3 6
-7 -4 -3 -2 -12 4 -20 8 -9 8 -13 1 -13 -6 0 -16 -10 -23 -21 -8 -15 -8 -19 0
-15 6 4 11 3 11 -3 0 -6 9 -15 20 -21 16 -9 18 -8 14 5 -5 11 -2 13 10 9 20
-8 16 -27 -8 -37 -10 -4 -16 -10 -13 -13 3 -3 14 -1 26 5 11 6 22 7 25 2 3 -5
-8 -14 -24 -20 -39 -13 -39 -22 -1 -11 23 6 33 4 43 -7 11 -14 10 -15 -12 -9
-16 5 -20 4 -12 -2 7 -5 14 -19 15 -31 1 -22 2 -22 26 6 17 20 22 22 17 8 -5
-11 -10 -27 -13 -36 -3 -11 -12 -15 -26 -13 -21 4 -21 4 -2 -5 23 -10 35 -5
35 15 0 8 5 14 10 14 6 0 10 8 10 19 0 10 7 25 16 32 14 11 22 7 58 -31 22
-25 46 -45 51 -45 6 -1 9 -7 7 -13 -2 -9 3 -10 16 -3 11 6 24 6 33 0 7 -5 10
-9 4 -9 -5 0 2 -8 15 -17 14 -10 28 -17 33 -15 4 1 7 -3 7 -10 0 -22 14 3 17
30 1 15 0 21 -3 15 -4 -9 -11 -10 -25 -3 -14 8 -19 7 -19 -2 0 -6 -11 4 -25
23 -26 35 -41 42 -61 27 -7 -5 -17 -1 -25 9 -11 15 -11 16 0 6 11 -9 17 -7 31
10 17 21 17 23 -1 48 -14 20 -15 29 -7 37 16 16 -5 16 -34 1 -14 -8 -23 -8
-31 0 -6 6 -19 11 -28 11 -16 0 -31 21 -33 45 -1 6 -10 10 -21 11 -28 1 -39
-7 -24 -17 8 -4 20 -3 28 4 12 9 13 9 7 -1 -8 -14 27 -65 38 -54 4 3 4 -1 1
-9 -4 -10 0 -16 10 -16 10 0 14 6 10 16 -4 13 -2 13 8 -1 8 -10 16 -15 19 -12
3 2 8 -1 11 -9 6 -17 -9 -44 -20 -34 -4 5 -1 13 7 18 13 9 12 10 -2 5 -10 -3
-20 -1 -24 5 -3 6 -10 6 -17 1 -7 -5 -20 -8 -30 -7 -9 2 -15 0 -12 -4 2 -4 -2
-8 -10 -8 -12 0 -12 3 -2 16 10 12 9 13 -2 6 -10 -6 -12 -4 -6 5 6 9 4 11 -5
5 -9 -6 -11 -4 -5 5 5 8 4 11 -2 7 -5 -3 -10 0 -10 8 0 8 4 15 9 15 4 0 8 -5
8 -12 0 -15 13 -1 16 18 2 15 -26 16 -37 0 -4 -4 -10 -3 -13 3 -4 6 -2 11 3
11 6 0 11 5 11 11 0 5 -4 8 -8 5 -12 -7 -38 12 -29 21 5 4 12 1 16 -6 7 -10
12 -8 25 10 9 13 16 18 16 11 0 -7 5 -10 11 -6 8 4 3 12 -12 20 -15 8 -18 14
-9 14 12 0 11 3 -3 11 -12 7 -16 17 -12 32 4 15 3 18 -3 9 -7 -10 -11 -10 -22
3 -10 12 -10 18 1 32 8 9 9 14 3 10 -20 -12 -24 23 -5 42 18 18 17 19 -15 45
-32 25 -48 24 -23 -1 15 -15 4 -42 -15 -39 -23 3 -45 26 -25 26 12 0 12 2 -1
10 -8 5 -11 10 -7 10 4 0 3 9 -3 21 -9 15 -15 18 -25 9 -10 -8 -14 -8 -17 2
-3 7 -7 3 -10 -10z m87 -87 c2 0 13 9 25 20 l23 20 -14 -23 c-8 -12 -19 -20
-26 -18 -7 3 -10 -1 -6 -9 3 -8 9 -13 13 -10 4 3 14 -3 21 -12 8 -9 9 -14 3
-10 -7 4 -17 0 -24 -8 -7 -8 -17 -12 -23 -8 -6 3 -7 1 -3 -5 5 -8 13 -9 25 -2
14 7 23 5 36 -10 16 -18 16 -20 1 -26 -19 -7 -12 -24 10 -24 9 0 12 5 8 12 -4
6 -3 8 3 5 14 -9 8 -53 -7 -49 -14 3 -40 -16 -40 -30 0 -5 4 -7 8 -4 4 2 14 0
22 -6 12 -8 12 -9 -2 -4 -10 3 -20 0 -24 -6 -4 -7 -10 -4 -17 7 -7 13 -5 20 7
27 14 8 15 13 5 24 -6 8 -8 14 -4 14 4 0 2 7 -5 15 -7 8 -9 15 -4 15 5 0 -2 9
-16 19 -24 19 -24 20 -6 40 13 15 15 21 6 21 -7 0 -10 3 -7 7 4 3 -3 18 -15
32 l-23 26 24 -20 c13 -11 24 -20 26 -20z m249 -249 c-3 -8 3 -23 13 -33 15
-15 17 -22 7 -31 -9 -8 -15 -9 -20 -1 -4 8 -9 7 -16 -2 -8 -11 -9 -11 -5 1 2
8 12 14 21 12 16 -3 16 -2 1 22 -9 14 -14 30 -10 36 9 15 15 12 9 -4z m-134
-67 c-7 -11 -14 -18 -17 -15 -3 3 0 12 7 21 18 21 23 19 10 -6z m185 -58 c-6
-5 -25 10 -25 20 0 5 6 4 14 -3 8 -7 12 -15 11 -17z m85 -35 c0 -3 -4 -8 -10
-11 -5 -3 -10 -1 -10 4 0 6 5 11 10 11 6 0 10 -2 10 -4z"/>
<path d="M1549 1693 c-13 -16 -12 -17 4 -4 9 7 17 15 17 17 0 8 -8 3 -21 -13z"/>
<path d="M1570 1659 c0 -5 -5 -7 -12 -3 -7 5 -8 3 -2 -7 5 -8 9 -17 10 -21 1
-5 3 -10 4 -13 1 -3 3 -10 4 -17 0 -6 12 -12 25 -13 l23 -2 -23 17 c-27 21
-36 55 -12 46 13 -5 14 -4 3 9 -15 18 -20 19 -20 4z"/>
<path d="M4500 1818 c0 -6 3 -8 7 -5 3 4 12 -1 20 -11 13 -15 13 -15 3 6 -11
23 -30 30 -30 10z"/>
<path d="M4476 1753 c-6 -14 -5 -15 5 -6 7 7 10 15 7 18 -3 3 -9 -2 -12 -12z"/>
<path d="M4555 1750 c10 -11 20 -20 23 -20 3 0 -3 9 -13 20 -10 11 -20 20 -23
20 -3 0 3 -9 13 -20z"/>
<path d="M4527 1739 c7 -7 15 -10 18 -7 3 3 -2 9 -12 12 -14 6 -15 5 -6 -5z"/>
<path d="M1455 1731 c-3 -5 -2 -12 3 -15 5 -3 9 1 9 9 0 17 -3 19 -12 6z"/>
<path d="M4415 1720 c3 -5 11 -10 16 -10 6 0 7 5 4 10 -3 6 -11 10 -16 10 -6
0 -7 -4 -4 -10z"/>
<path d="M4472 1709 c-7 -12 -11 -24 -8 -27 3 -3 6 0 6 7 0 7 4 10 8 7 4 -2 9
4 9 15 2 24 1 24 -15 -2z"/>
<path d="M4516 1693 c-6 -14 -5 -15 5 -6 7 7 10 15 7 18 -3 3 -9 -2 -12 -12z"/>
<path d="M1474 1673 c2 -10 -2 -25 -8 -33 -9 -13 -9 -13 6 -2 16 12 18 35 6
48 -4 3 -5 -2 -4 -13z"/>
<path d="M4400 1686 c0 -2 7 -7 16 -10 8 -3 12 -2 9 4 -6 10 -25 14 -25 6z"/>
<path d="M4393 1662 c-9 -5 -6 -12 10 -21 19 -13 21 -12 10 1 -7 8 -10 18 -6
21 9 9 1 8 -14 -1z"/>
<path d="M4434 1658 c-4 -7 -4 -10 1 -6 4 4 14 3 22 -4 11 -8 12 -7 7 6 -7 19
-20 21 -30 4z"/>
<path d="M4541 1656 c-9 -11 -9 -16 1 -22 7 -4 10 -4 6 1 -4 4 -3 14 3 22 6 7
9 13 6 13 -2 0 -10 -6 -16 -14z"/>
<path d="M1506 1622 c-3 -5 1 -9 9 -9 8 0 15 4 15 9 0 4 -4 8 -9 8 -6 0 -12
-4 -15 -8z"/>
<path d="M4347 1623 c-3 -5 6 -9 20 -10 19 -1 22 1 12 8 -17 11 -26 11 -32 2z"/>
<path d="M4515 1609 c-4 -6 -5 -12 -2 -15 2 -3 7 2 10 11 7 17 1 20 -8 4z"/>
<path d="M4446 1598 c3 -5 10 -6 15 -3 13 9 11 12 -6 12 -8 0 -12 -4 -9 -9z"/>
<path d="M1526 1585 c-3 -8 -1 -15 4 -15 6 0 10 7 10 15 0 8 -2 15 -4 15 -2 0
-6 -7 -10 -15z"/>
<path d="M4350 1582 c0 -5 7 -9 15 -9 8 0 12 4 9 9 -3 4 -9 8 -15 8 -5 0 -9
-4 -9 -8z"/>
<path d="M4390 1580 c0 -5 5 -10 11 -10 5 0 7 5 4 10 -3 6 -8 10 -11 10 -2 0
-4 -4 -4 -10z"/>
<path d="M1475 1561 c-3 -5 -2 -12 3 -15 5 -3 9 1 9 9 0 17 -3 19 -12 6z"/>
<path d="M4373 1535 c0 -8 4 -12 9 -9 4 3 8 9 8 15 0 5 -4 9 -8 9 -5 0 -9 -7
-9 -15z"/>
<path d="M4426 1542 c-3 -5 1 -9 9 -9 8 0 12 4 9 9 -3 4 -7 8 -9 8 -2 0 -6 -4
-9 -8z"/>
<path d="M1496 1518 c3 -5 10 -6 15 -3 13 9 11 12 -6 12 -8 0 -12 -4 -9 -9z"/>
<path d="M4294 1519 c-4 -7 -3 -9 4 -5 5 3 13 0 15 -6 4 -9 6 -10 6 -1 1 17
-16 25 -25 12z"/>
<path d="M1673 1513 c4 -3 2 -12 -4 -19 -10 -13 2 -26 28 -30 9 -2 8 6 -2 27
-9 16 -18 29 -22 29 -3 0 -3 -3 0 -7z"/>
<path d="M4337 1513 c-10 -9 -9 -23 1 -23 5 0 9 7 9 15 0 17 -1 18 -10 8z"/>
<path d="M1530 1502 c0 -4 10 -9 22 -9 18 -2 20 0 8 7 -18 12 -30 13 -30 2z"/>
<path d="M4256 1494 c-3 -9 -1 -23 5 -32 7 -13 9 -13 6 -2 -2 8 0 23 5 33 5
10 5 17 -1 17 -5 0 -12 -7 -15 -16z"/>
<path d="M4375 1501 c-3 -5 -2 -12 3 -15 5 -3 9 1 9 9 0 17 -3 19 -12 6z"/>
<path d="M4416 1493 c-6 -14 -5 -15 5 -6 7 7 10 15 7 18 -3 3 -9 -2 -12 -12z"/>
<path d="M1534 1466 c1 -8 5 -18 8 -22 4 -3 5 1 4 10 -1 8 -5 18 -8 22 -4 3
-5 -1 -4 -10z"/>
<path d="M1830 1460 c0 -5 5 -10 10 -10 6 0 10 5 10 10 0 6 -4 10 -10 10 -5 0
-10 -4 -10 -10z"/>
<path d="M3857 1456 c-4 -10 0 -12 14 -9 10 3 16 9 13 14 -8 13 -21 11 -27 -5z"/>
<path d="M4020 1455 c-10 -12 -9 -16 6 -21 11 -4 23 -9 28 -12 5 -3 6 0 2 6
-4 7 -14 12 -22 12 -8 0 -12 5 -9 11 4 6 14 8 22 5 8 -3 11 -1 8 4 -9 14 -21
12 -35 -5z"/>
<path d="M4090 1460 c0 -5 5 -10 10 -10 6 0 10 5 10 10 0 6 -4 10 -10 10 -5 0
-10 -4 -10 -10z"/>
<path d="M4233 1443 c0 -16 2 -22 4 -15 3 6 9 9 15 6 6 -4 5 2 -1 15 -15 28
-19 27 -18 -6z"/>
<path d="M4350 1460 c0 -5 5 -10 11 -10 5 0 7 5 4 10 -3 6 -8 10 -11 10 -2 0
-4 -4 -4 -10z"/>
<path d="M4387 1459 c7 -7 15 -10 18 -7 3 3 -2 9 -12 12 -14 6 -15 5 -6 -5z"/>
<path d="M4420 1466 c0 -2 8 -10 18 -17 15 -13 16 -12 3 4 -13 16 -21 21 -21
13z"/>
<path d="M4073 1442 c0 -12 5 -22 9 -22 11 0 10 12 -2 30 -7 12 -9 10 -7 -8z"/>
<path d="M4143 1453 c-7 -3 -13 -9 -13 -15 0 -6 6 -6 15 2 12 10 16 10 19 -1
13 -41 14 -43 15 -23 1 25 -18 43 -36 37z"/>
<path d="M3740 1426 c0 -22 -18 -30 -36 -15 -11 9 -18 8 -34 -6 -11 -10 -17
-22 -14 -26 8 -13 44 -11 44 2 0 6 -7 8 -16 5 -14 -6 -15 -4 -4 9 12 14 15 14
22 1 11 -19 0 -46 -17 -40 -7 3 -18 -4 -25 -15 -6 -12 -16 -21 -23 -21 -8 0
-7 4 3 10 8 5 12 12 9 15 -4 3 -18 -10 -33 -30 -27 -35 -28 -59 -1 -48 8 3 15
0 15 -6 0 -6 9 -2 21 10 11 11 26 18 33 16 8 -3 12 5 11 22 -2 38 12 53 37 40
13 -7 18 -7 14 -1 -3 6 -2 13 4 17 6 4 8 11 5 16 -6 9 8 13 33 10 20 -3 14 6
-18 29 -24 17 -30 18 -30 6z m29 -20 c-2 -2 -15 -9 -29 -15 -24 -11 -24 -11
-6 3 16 13 49 24 35 12z m-83 -76 c0 -11 -5 -20 -10 -19 -5 0 -12 -5 -17 -13
-5 -7 -20 -14 -33 -15 -21 -1 -23 1 -13 12 6 7 14 9 15 4 2 -5 8 -9 13 -9 6 0
7 5 4 10 -6 9 8 15 29 11 5 -1 6 5 3 13 -3 8 -3 17 0 20 9 9 10 8 9 -14z"/>
<path d="M3990 1431 c0 -5 5 -13 10 -16 6 -3 10 -2 10 4 0 5 -4 13 -10 16 -5
3 -10 2 -10 -4z"/>
<path d="M4110 1431 c0 -10 19 -25 25 -20 1 2 -3 10 -11 17 -8 7 -14 8 -14 3z"/>
<path d="M1570 1421 c0 -6 4 -13 10 -16 6 -3 7 1 4 9 -7 18 -14 21 -14 7z"/>
<path d="M1600 1410 c6 -11 13 -20 16 -20 2 0 0 9 -6 20 -6 11 -13 20 -16 20
-2 0 0 -9 6 -20z"/>
<path d="M1870 1420 c0 -5 5 -10 11 -10 5 0 7 5 4 10 -3 6 -8 10 -11 10 -2 0
-4 -4 -4 -10z"/>
<path d="M4270 1421 c0 -6 4 -12 8 -15 5 -3 9 1 9 9 0 8 -4 15 -9 15 -4 0 -8
-4 -8 -9z"/>
<path d="M4395 1420 c3 -5 8 -10 11 -10 2 0 4 5 4 10 0 6 -5 10 -11 10 -5 0
-7 -4 -4 -10z"/>
<path d="M4016 1402 c-2 -4 0 -14 6 -22 8 -12 9 -12 4 2 -3 10 1 18 12 21 16
4 16 5 0 6 -9 0 -19 -3 -22 -7z"/>
<path d="M4068 1403 c7 -3 16 -2 19 1 4 3 -2 6 -13 5 -11 0 -14 -3 -6 -6z"/>
<path d="M4190 1404 c0 -6 7 -17 15 -24 8 -7 15 -9 15 -5 0 4 8 1 18 -6 15
-13 16 -12 3 3 -7 10 -17 15 -22 13 -4 -3 -12 3 -18 12 -6 10 -11 13 -11 7z"/>
<path d="M4045 1380 c-3 -6 1 -7 9 -4 18 7 21 14 7 14 -6 0 -13 -4 -16 -10z"/>
<path d="M4146 1382 c-3 -5 1 -9 9 -9 8 0 15 4 15 9 0 4 -4 8 -9 8 -6 0 -12
-4 -15 -8z"/>
<path d="M3994 1372 c3 -5 0 -13 -6 -15 -10 -4 -10 -6 0 -6 8 -1 10 -6 6 -13
-4 -7 -4 -10 1 -6 4 4 13 4 19 -2 8 -6 12 -3 12 9 0 12 -5 17 -15 13 -9 -3
-12 -1 -7 6 3 6 1 14 -5 18 -7 4 -9 3 -5 -4z"/>
<path d="M4108 1363 c7 -3 16 -2 19 1 4 3 -2 6 -13 5 -11 0 -14 -3 -6 -6z"/>
<path d="M1516 1347 c3 -10 9 -15 12 -12 3 3 0 11 -7 18 -10 9 -11 8 -5 -6z"/>
<path d="M3915 1350 c-3 -6 1 -7 9 -4 18 7 21 14 7 14 -6 0 -13 -4 -16 -10z"/>
<path d="M4135 1349 c-4 -6 -5 -12 -2 -15 2 -3 7 2 10 11 7 17 1 20 -8 4z"/>
<path d="M4214 1335 c0 -13 3 -22 7 -19 8 4 6 30 -2 38 -3 3 -5 -5 -5 -19z"/>
<path d="M1600 1346 c0 -2 8 -10 18 -17 15 -13 16 -12 3 4 -13 16 -21 21 -21
13z"/>
<path d="M1680 1340 c8 -5 20 -10 25 -10 6 0 3 5 -5 10 -8 5 -19 10 -25 10 -5
0 -3 -5 5 -10z"/>
<path d="M4436 1342 c-3 -5 1 -9 9 -9 8 0 12 4 9 9 -3 4 -7 8 -9 8 -2 0 -6 -4
-9 -8z"/>
<path d="M1660 1320 c-12 -7 -10 -9 7 -7 12 0 19 5 17 9 -6 10 -6 10 -24 -2z"/>
<path d="M3916 1318 c3 -5 10 -6 15 -3 13 9 11 12 -6 12 -8 0 -12 -4 -9 -9z"/>
<path d="M3953 1323 c4 -3 1 -13 -6 -22 -11 -14 -10 -14 5 -2 16 12 16 31 1
31 -4 0 -3 -3 0 -7z"/>
<path d="M1990 1306 c0 -8 5 -18 10 -21 6 -3 10 3 10 14 0 12 -4 21 -10 21 -5
0 -10 -6 -10 -14z"/>
<path d="M2079 1307 c11 -14 11 -17 0 -18 -8 0 -4 -5 9 -11 12 -6 22 -15 22
-20 0 -5 5 -6 11 -3 6 5 4 12 -8 22 -10 8 -13 12 -6 9 6 -4 15 -2 18 4 4 6 3
9 -2 8 -4 -1 -19 4 -33 12 -23 12 -24 12 -11 -3z"/>
<path d="M3896 1293 c-6 -14 -5 -15 5 -6 7 7 10 15 7 18 -3 3 -9 -2 -12 -12z"/>
<path d="M3976 1293 c-6 -14 -5 -15 5 -6 7 7 10 15 7 18 -3 3 -9 -2 -12 -12z"/>
<path d="M4006 1302 c-3 -5 1 -9 9 -9 8 0 12 4 9 9 -3 4 -7 8 -9 8 -2 0 -6 -4
-9 -8z"/>
<path d="M1716 1287 c3 -10 9 -15 12 -12 3 3 0 11 -7 18 -10 9 -11 8 -5 -6z"/>
<path d="M3515 1270 c-14 -15 -20 -17 -26 -8 -10 15 -24 3 -24 -20 0 -18 -23
-24 -41 -10 -6 4 -11 2 -11 -5 0 -20 92 -16 93 3 2 30 4 32 19 20 9 -7 18 -10
22 -6 3 3 1 6 -6 6 -8 0 -10 7 -6 20 8 25 3 25 -20 0z m-21 -38 c3 -5 -1 -9
-9 -9 -8 0 -12 4 -9 9 3 4 7 8 9 8 2 0 6 -4 9 -8z"/>
<path d="M3835 1280 c-3 -5 -1 -10 4 -10 6 0 11 5 11 10 0 6 -2 10 -4 10 -3 0
-8 -4 -11 -10z"/>
<path d="M4176 1278 c3 -4 11 -5 19 -1 21 7 19 12 -4 10 -11 0 -18 -5 -15 -9z"/>
<path d="M3325 1271 c-3 -5 -1 -12 5 -16 5 -3 10 1 10 9 0 18 -6 21 -15 7z"/>
<path d="M1732 1261 c-11 -7 -11 -9 0 -14 9 -3 15 1 15 9 0 8 -1 14 -1 14 -1
0 -7 -4 -14 -9z"/>
<path d="M1792 1256 c7 -8 15 -12 17 -11 5 6 -10 25 -20 25 -5 0 -4 -6 3 -14z"/>
<path d="M2230 1256 c0 -2 7 -7 16 -10 8 -3 12 -2 9 4 -6 10 -25 14 -25 6z"/>
<path d="M3585 1252 c-9 -9 -5 -23 4 -17 6 3 14 -2 19 -12 9 -14 10 -13 9 8
-2 23 -19 34 -32 21z"/>
<path d="M1779 1248 c0 -2 -2 -13 -3 -25 -2 -19 0 -21 12 -11 9 8 10 14 3 16
-6 2 -9 8 -5 13 3 5 3 9 0 9 -3 0 -6 -1 -7 -2z"/>
<path d="M3790 1230 c-6 -11 -8 -20 -6 -20 3 0 10 9 16 20 6 11 8 20 6 20 -3
0 -10 -9 -16 -20z"/>
<path d="M3826 1238 c3 -5 10 -6 15 -3 13 9 11 12 -6 12 -8 0 -12 -4 -9 -9z"/>
<path d="M3746 1225 c-18 -14 -18 -14 1 -12 11 0 20 7 20 14 0 7 -1 13 -1 13
-1 0 -9 -7 -20 -15z"/>
<path d="M3235 1220 c-4 -6 -11 -7 -17 -4 -7 4 -8 2 -4 -5 6 -8 12 -9 20 -2 7
6 17 7 21 3 5 -4 5 -1 1 6 -9 15 -13 15 -21 2z"/>
<path d="M4080 1220 c-9 -6 -10 -10 -3 -10 6 0 15 5 18 10 8 12 4 12 -15 0z"/>
<path d="M2522 1204 c-6 -7 -17 -14 -24 -17 -8 -2 -9 -8 -4 -13 5 -5 11 -4 13
4 3 6 9 12 14 12 6 0 7 -4 4 -10 -3 -5 -2 -10 4 -10 5 0 11 5 13 12 2 6 12 -4
21 -23 11 -20 17 -26 15 -14 -1 11 1 26 6 34 6 10 5 12 -2 7 -6 -4 -20 2 -30
12 -14 14 -21 16 -30 6z"/>
<path d="M3713 1203 c4 -6 2 -13 -5 -15 -8 -3 -6 -6 4 -10 17 -7 19 15 3 29
-4 4 -5 3 -2 -4z"/>
<path d="M3815 1200 c3 -5 8 -10 11 -10 2 0 4 5 4 10 0 6 -5 10 -11 10 -5 0
-7 -4 -4 -10z"/>
<path d="M1902 1187 c10 -8 14 -18 10 -23 -4 -4 0 -3 8 3 8 6 23 9 33 8 9 -2
15 0 12 5 -3 5 -13 7 -23 5 -9 -1 -26 2 -37 7 -18 8 -19 8 -3 -5z"/>
<path d="M1799 1173 c-12 -16 -12 -17 2 -5 9 7 25 10 35 6 16 -5 16 -4 4 5
-20 15 -25 14 -41 -6z"/>
<path d="M1990 1180 c0 -5 5 -10 10 -10 6 0 10 5 10 10 0 6 -4 10 -10 10 -5 0
-10 -4 -10 -10z"/>
<path d="M2050 1178 c0 -6 3 -8 6 -5 4 3 16 2 28 -4 20 -10 20 -10 2 5 -24 19
-36 20 -36 4z"/>
<path d="M2666 1182 c-2 -4 -1 -14 4 -22 5 -8 4 -22 -2 -34 -8 -16 -8 -18 1
-10 15 14 24 74 11 74 -5 0 -11 -4 -14 -8z"/>
<path d="M2158 1148 c-7 -17 15 -19 29 -3 4 4 3 5 -4 2 -6 -4 -13 -2 -15 5 -3
8 -6 6 -10 -4z"/>
<path d="M2508 1153 c7 -3 16 -2 19 1 4 3 -2 6 -13 5 -11 0 -14 -3 -6 -6z"/>
<path d="M2804 1152 c-8 -5 -7 -11 4 -22 14 -13 15 -12 9 2 -3 9 -1 19 6 22 7
2 8 5 2 5 -5 0 -15 -3 -21 -7z"/>
<path d="M2020 1146 c0 -2 8 -10 18 -17 15 -13 16 -12 3 4 -13 16 -21 21 -21
13z"/>
<path d="M2090 1139 c0 -5 5 -7 10 -4 6 3 10 8 10 11 0 2 -4 4 -10 4 -5 0 -10
-5 -10 -11z"/>
<path d="M2260 1140 c8 -5 20 -10 25 -10 6 0 3 5 -5 10 -8 5 -19 10 -25 10 -5
0 -3 -5 5 -10z"/>
<path d="M2433 1135 c0 -8 4 -12 9 -9 4 3 8 9 8 15 0 5 -4 9 -8 9 -5 0 -9 -7
-9 -15z"/>
<path d="M2750 1140 c0 -6 7 -10 15 -10 8 0 15 2 15 4 0 2 -7 6 -15 10 -8 3
-15 1 -15 -4z"/>
<path d="M3028 1133 c6 -2 18 -2 25 0 6 3 1 5 -13 5 -14 0 -19 -2 -12 -5z"/>
<path d="M2236 1118 c3 -5 10 -6 15 -3 13 9 11 12 -6 12 -8 0 -12 -4 -9 -9z"/>
<path d="M2350 1120 c0 -5 5 -10 11 -10 5 0 7 5 4 10 -3 6 -8 10 -11 10 -2 0
-4 -4 -4 -10z"/>
<path d="M2590 1125 c5 -21 -1 -29 -10 -15 -7 12 -9 10 -7 -8 1 -14 5 -18 11
-12 6 6 14 3 23 -8 12 -15 13 -14 2 8 -7 14 -11 27 -10 28 2 2 0 7 -4 10 -4 4
-6 3 -5 -3z"/>
<path d="M2721 1109 c12 -24 26 -31 26 -14 0 8 -5 11 -10 8 -6 -4 -8 0 -5 9 4
8 0 15 -7 15 -10 0 -11 -5 -4 -18z"/>
<path d="M2855 1120 c-4 -6 1 -7 11 -3 13 5 15 3 9 -7 -5 -9 -4 -11 3 -6 7 4
12 11 12 17 0 12 -27 12 -35 -1z"/>
<path d="M2987 1104 c-13 -18 -14 -22 -3 -18 8 3 17 13 20 21 10 25 3 23 -17
-3z"/>
<path d="M3070 1125 c0 -5 5 -17 10 -25 5 -8 10 -10 10 -5 0 6 -5 17 -10 25
-5 8 -10 11 -10 5z"/>
<path d="M3586 1118 c3 -5 10 -6 15 -3 13 9 11 12 -6 12 -8 0 -12 -4 -9 -9z"/>
<path d="M2133 1105 c0 -8 4 -12 9 -9 5 3 6 10 3 15 -9 13 -12 11 -12 -6z"/>
<path d="M3170 1105 c0 -8 4 -15 10 -15 5 0 7 7 4 15 -4 8 -8 15 -10 15 -2 0
-4 -7 -4 -15z"/>
<path d="M3195 1110 c3 -5 8 -10 11 -10 2 0 4 5 4 10 0 6 -5 10 -11 10 -5 0
-7 -4 -4 -10z"/>
<path d="M2035 1100 c3 -5 8 -10 11 -10 2 0 4 5 4 10 0 6 -5 10 -11 10 -5 0
-7 -4 -4 -10z"/>
<path d="M2635 1100 c-3 -5 -1 -10 4 -10 6 0 11 5 11 10 0 6 -2 10 -4 10 -3 0
-8 -4 -11 -10z"/>
<path d="M3028 1103 c6 -2 18 -2 25 0 6 3 1 5 -13 5 -14 0 -19 -2 -12 -5z"/>
<path d="M3126 1095 c4 -8 8 -15 10 -15 2 0 4 7 4 15 0 8 -4 15 -10 15 -5 0
-7 -7 -4 -15z"/>
<path d="M3505 1100 c-3 -6 1 -7 9 -4 18 7 21 14 7 14 -6 0 -13 -4 -16 -10z"/>
<path d="M2473 1075 c0 -8 4 -12 9 -9 5 3 6 10 3 15 -9 13 -12 11 -12 -6z"/>
<path d="M2669 1075 c5 -5 7 -18 6 -27 -2 -10 0 -20 4 -23 4 -2 7 8 6 23 -1
15 3 30 9 34 6 4 1 6 -11 5 -14 -1 -19 -5 -14 -12z"/>
<path d="M2713 1083 c4 -3 1 -13 -6 -22 -11 -14 -10 -14 5 -2 16 12 16 31 1
31 -4 0 -3 -3 0 -7z"/>
<path d="M2746 1062 l-19 -27 24 22 c12 12 21 24 18 27 -2 2 -13 -8 -23 -22z"/>
<path d="M3150 1081 c0 -10 29 -36 34 -30 1 2 -6 12 -16 22 -10 9 -18 13 -18
8z"/>
<path d="M3195 1079 c-18 -9 -18 -9 3 -5 19 4 22 1 17 -12 -5 -14 -4 -15 6 -4
18 17 -1 32 -26 21z"/>
<path d="M3310 1080 c0 -5 5 -10 10 -10 6 0 10 5 10 10 0 6 -4 10 -10 10 -5 0
-10 -4 -10 -10z"/>
<path d="M2810 1070 c-9 -6 -10 -10 -3 -10 6 0 15 5 18 10 8 12 4 12 -15 0z"/>
<path d="M2940 1071 c0 -5 -11 -8 -25 -5 -14 2 -25 0 -25 -4 0 -13 53 -8 58 6
2 7 1 12 -2 12 -3 0 -6 -4 -6 -9z"/>
<path d="M3075 1070 c-4 -6 -11 -8 -16 -5 -5 4 -9 1 -9 -4 0 -16 16 -13 30 4
7 8 10 15 7 15 -3 0 -9 -5 -12 -10z"/>
<path d="M3279 1063 c-13 -16 -12 -17 4 -4 16 13 21 21 13 21 -2 0 -10 -8 -17
-17z"/>
<path d="M3346 1067 c-16 -12 -16 -13 2 -13 10 0 19 6 19 13 0 7 -1 13 -2 13
-1 0 -9 -6 -19 -13z"/>
<path d="M2574 1054 c1 -7 6 -17 10 -21 4 -4 6 -1 4 7 -2 9 3 14 12 12 8 -2
11 0 7 4 -13 14 -35 12 -33 -2z"/>
<path d="M2835 1060 c-3 -5 -3 -10 2 -10 4 0 1 -5 -7 -10 -12 -7 -10 -9 7 -7
15 1 19 5 13 13 -6 6 -7 14 -3 17 3 4 4 7 0 7 -3 0 -9 -4 -12 -10z"/>
<path d="M2959 1063 c0 -5 -2 -16 -4 -26 -2 -11 -1 -16 3 -13 8 8 14 46 7 46
-3 0 -5 -3 -6 -7z"/>
<path d="M3105 1059 c-3 -4 2 -6 10 -5 21 3 28 13 10 13 -9 0 -18 -4 -20 -8z"/>
<path d="M3237 1056 c-3 -8 0 -17 7 -19 10 -4 12 1 9 14 -6 23 -9 24 -16 5z"/>
<path d="M2330 1039 c0 -5 5 -7 10 -4 6 3 10 8 10 11 0 2 -4 4 -10 4 -5 0 -10
-5 -10 -11z"/>
<path d="M3075 1040 c-3 -6 1 -13 9 -16 9 -3 13 -11 9 -18 -3 -6 -2 -7 2 -3
16 14 14 36 -3 30 -10 -4 -13 -2 -8 5 4 7 5 12 2 12 -3 0 -8 -5 -11 -10z"/>
<path d="M2611 1027 c-8 -10 -7 -14 2 -14 8 0 14 6 14 14 0 7 -1 13 -2 13 -2
0 -8 -6 -14 -13z"/>
<path d="M2869 1023 c-13 -16 -12 -17 4 -4 9 7 17 15 17 17 0 8 -8 3 -21 -13z"/>
<path d="M3130 1036 c0 -2 7 -9 15 -16 9 -7 15 -8 15 -2 0 5 -7 12 -15 16 -8
3 -15 4 -15 2z"/>
<path d="M3193 1025 c0 -8 4 -12 9 -9 5 3 6 10 3 15 -9 13 -12 11 -12 -6z"/>
<path d="M2487 1019 c7 -7 15 -10 18 -7 3 3 -2 9 -12 12 -14 6 -15 5 -6 -5z"/>
<path d="M2699 1013 c-13 -16 -12 -17 4 -4 16 13 21 21 13 21 -2 0 -10 -8 -17
-17z"/>
<path d="M2790 1020 c0 -5 5 -10 11 -10 5 0 7 5 4 10 -3 6 -8 10 -11 10 -2 0
-4 -4 -4 -10z"/>
<path d="M2906 1020 c6 -8 10 -23 8 -33 -1 -11 0 -16 4 -13 12 13 10 36 -6 48
-15 11 -15 11 -6 -2z"/>
<path d="M3220 1026 c0 -2 8 -10 18 -17 15 -13 16 -12 3 4 -13 16 -21 21 -21
13z"/>
<path d="M2333 995 c0 -8 4 -12 9 -9 5 3 6 10 3 15 -9 13 -12 11 -12 -6z"/>
<path d="M3199 993 c-13 -16 -12 -17 4 -4 16 13 21 21 13 21 -2 0 -10 -8 -17
-17z"/>
<path d="M2193 985 c0 -8 4 -12 9 -9 5 3 6 10 3 15 -9 13 -12 11 -12 -6z"/>
<path d="M3050 996 c0 -2 8 -10 18 -17 15 -13 16 -12 3 4 -13 16 -21 21 -21
13z"/>
<path d="M2627 979 c7 -7 15 -10 18 -7 3 3 -2 9 -12 12 -14 6 -15 5 -6 -5z"/>
<path d="M3110 978 c0 -4 4 -8 9 -8 6 0 12 4 15 8 3 5 -1 9 -9 9 -8 0 -15 -4
-15 -9z"/>
<path d="M2730 959 c0 -5 5 -7 10 -4 6 3 10 8 10 11 0 2 -4 4 -10 4 -5 0 -10
-5 -10 -11z"/>
<path d="M3195 961 c-3 -5 -2 -12 3 -15 5 -3 9 1 9 9 0 17 -3 19 -12 6z"/>
<path d="M2669 943 c-13 -16 -12 -17 4 -4 9 7 17 15 17 17 0 8 -8 3 -21 -13z"/>
<path d="M2910 946 c0 -2 7 -7 16 -10 8 -3 12 -2 9 4 -6 10 -25 14 -25 6z"/>
<path d="M2696 882 c-3 -4 4 -9 15 -9 23 -2 25 3 4 10 -8 4 -16 3 -19 -1z"/>
</g>
</svg>
