<svg width="32" height="32" viewBox="0 0 32 32" fill="none" xmlns="http://www.w3.org/2000/svg">
<path d="M29.5822 8.16855C28.1645 5.65563 26.2414 3.66615 23.8124 2.19966C21.3831 0.733096 18.7311 0 15.8543 0C12.978 0 10.3251 0.73332 7.89626 2.19966C5.46711 3.66608 3.54409 5.65563 2.12634 8.16855C0.708804 10.6814 0 13.4254 0 16.4006C0 19.9745 1.00793 23.1882 3.02429 26.0425C5.04044 28.8971 7.645 30.8724 10.8378 31.9685C11.2094 32.0399 11.4845 31.9897 11.6634 31.8193C11.8424 31.6486 11.9317 31.4348 11.9317 31.1788C11.9317 31.1361 11.9282 30.7519 11.9213 30.0257C11.9142 29.2995 11.9109 28.6659 11.9109 28.1253L11.4361 28.2103C11.1333 28.2677 10.7514 28.292 10.2903 28.2851C9.82948 28.2785 9.35103 28.2285 8.85567 28.1356C8.3601 28.0435 7.89915 27.83 7.47248 27.4954C7.04603 27.1608 6.74329 26.7229 6.56434 26.1822L6.35791 25.6908C6.22031 25.3637 6.00368 25.0002 5.70774 24.6018C5.4118 24.2031 5.11253 23.9328 4.80979 23.7904L4.66525 23.6834C4.56894 23.6123 4.47957 23.5265 4.39693 23.4269C4.31436 23.3274 4.25253 23.2277 4.21125 23.1279C4.16989 23.0281 4.20416 22.9462 4.31443 22.8819C4.42469 22.8177 4.62396 22.7865 4.91311 22.7865L5.32583 22.8503C5.60109 22.9074 5.94157 23.0778 6.34771 23.3627C6.75363 23.6474 7.08732 24.0175 7.34884 24.4729C7.66554 25.0568 8.04709 25.5017 8.49458 25.8078C8.94172 26.114 9.39254 26.2668 9.84661 26.2668C10.3007 26.2668 10.6929 26.2312 11.0233 26.1603C11.3534 26.0891 11.6631 25.9821 11.9522 25.8398C12.0761 24.8855 12.4133 24.1524 12.9636 23.64C12.1792 23.5547 11.474 23.4263 10.8477 23.2555C10.2217 23.0846 9.57475 22.8071 8.90737 22.4223C8.23964 22.0381 7.68571 21.5609 7.24545 20.9917C6.80511 20.4222 6.44373 19.6745 6.16182 18.7493C5.87975 17.8238 5.73869 16.7561 5.73869 15.546C5.73869 13.8231 6.28242 12.3569 7.36967 11.1466C6.86035 9.85128 6.90843 8.39915 7.51406 6.79039C7.91318 6.66212 8.50507 6.75838 9.28943 7.07859C10.0739 7.39895 10.6483 7.67339 11.0132 7.90092C11.378 8.12838 11.6704 8.32114 11.8906 8.47746C13.1708 8.10744 14.4918 7.92239 15.8542 7.92239C17.2166 7.92239 18.5379 8.10744 19.8182 8.47746L20.6026 7.96517C21.139 7.62335 21.7725 7.31009 22.5015 7.02533C23.2309 6.74073 23.7886 6.66234 24.1742 6.79062C24.7932 8.39945 24.8484 9.85151 24.339 11.1469C25.4261 12.3571 25.9701 13.8237 25.9701 15.5463C25.9701 16.7563 25.8285 17.8274 25.5469 18.76C25.2649 19.6928 24.9004 20.4398 24.4533 21.0024C24.0056 21.565 23.4482 22.0384 22.7808 22.4225C22.1133 22.807 21.4661 23.0845 20.8401 23.2555C20.2138 23.4265 19.5086 23.555 18.7243 23.6404C19.4397 24.2808 19.7974 25.2917 19.7974 26.6726V31.1782C19.7974 31.4342 19.8835 31.6479 20.0557 31.8187C20.2277 31.9891 20.4994 32.0393 20.871 31.9679C24.0642 30.8719 26.6688 28.8965 28.6848 26.0419C30.7007 23.1876 31.709 19.9739 31.709 16.4C31.7083 13.4252 30.9991 10.6814 29.5822 8.16855Z" fill="white"/>
</svg>
