<svg width="27" height="27" viewBox="0 0 27 27" fill="none" xmlns="http://www.w3.org/2000/svg">
<g clip-path="url(#clip0)">
<path d="M11.7063 12.9165C11.0712 12.9165 10.4741 13.1638 10.0251 13.6129C9.57591 14.0619 9.32861 14.659 9.32861 15.2942C9.32861 15.9293 9.57591 16.5264 10.025 16.9754C10.4741 17.4246 11.0712 17.6719 11.7063 17.6719C12.3414 17.6719 12.9385 17.4246 13.3876 16.9755C13.8368 16.5264 14.0841 15.9293 14.0841 15.2942C14.0841 14.659 13.8368 14.0619 13.3876 13.613C12.9385 13.1638 12.3414 12.9165 11.7063 12.9165ZM12.5363 16.1242C12.3146 16.3459 12.0198 16.468 11.7063 16.468C11.3928 16.468 11.0981 16.3459 10.8763 16.1241C10.6546 15.9024 10.5325 15.6077 10.5325 15.2942C10.5325 14.9807 10.6546 14.686 10.8764 14.4642C11.0981 14.2425 11.3928 14.1204 11.7063 14.1204C12.0198 14.1204 12.3146 14.2425 12.5364 14.4643C12.758 14.686 12.8802 14.9807 12.8802 15.2942C12.8802 15.6077 12.758 15.9024 12.5363 16.1242Z" fill="white"/>
<path d="M5.58856 18.1299C5.35347 17.895 4.97238 17.895 4.73729 18.1299C4.50228 18.365 4.50228 18.7461 4.73729 18.9812L8.01909 22.263C8.13663 22.3805 8.29072 22.4393 8.44473 22.4393C8.59873 22.4393 8.75282 22.3805 8.87037 22.263C9.10537 22.0279 9.10537 21.6468 8.87037 21.4117L5.58856 18.1299Z" fill="white"/>
<path d="M26.2727 4.22044L26.6317 3.92301C26.6462 3.91097 26.6601 3.89842 26.6734 3.88517C27.1091 3.4493 27.1091 2.74016 26.6734 2.30421L24.6963 0.327097C24.4852 0.116169 24.2046 0 23.906 0C23.6076 0 23.327 0.116169 23.1158 0.327097C23.1025 0.340425 23.0897 0.354355 23.0777 0.368887L22.7802 0.72797L22.5387 0.486432C22.3036 0.251514 21.9225 0.251428 21.6875 0.486346C21.4524 0.721349 21.4524 1.10253 21.6874 1.33754L22.0087 1.65896L21.7888 1.9244L21.4828 1.61854C21.2477 1.38354 20.8665 1.38363 20.6316 1.61863C20.3966 1.85372 20.3966 2.23482 20.6317 2.46982L21.0173 2.8553L20.7698 3.15402C20.5874 3.34638 20.4738 3.58998 20.4491 3.84356C20.4383 3.95397 20.4454 4.06291 20.4681 4.16678L14.5044 10.1306C13.6671 9.63843 12.7621 9.36929 11.8857 9.36929C11.8457 9.36929 11.8059 9.36989 11.7666 9.37101C10.5002 9.40695 9.32598 9.93079 8.37066 10.8859C7.91157 11.3451 7.57476 11.9351 7.36951 12.6397C7.25179 13.044 6.86683 13.333 6.43336 13.3424C5.10185 13.3714 3.23231 13.6883 1.88746 15.0333C0.514755 16.4062 -0.130237 18.1009 0.0224769 19.9342C0.161691 21.6066 0.986913 23.2784 2.34715 24.6431L2.35755 24.6535C2.35755 24.6535 2.35755 24.6535 2.35764 24.6535C2.35764 24.6535 2.3579 24.6537 2.35798 24.6538C2.35816 24.654 2.35841 24.6543 2.35876 24.6546C2.35884 24.6547 2.35893 24.6548 2.35902 24.6549C2.35919 24.655 2.35936 24.6552 2.35953 24.6554C2.3597 24.6556 2.35988 24.6557 2.36005 24.6559C2.36039 24.6562 2.36056 24.6564 2.36074 24.6566C2.36108 24.6568 2.36099 24.6569 2.36117 24.6569C3.72458 26.0149 5.39524 26.8392 7.0664 26.9782C7.24001 26.9927 7.415 27.0001 7.58671 27.0001C9.21841 27 10.7333 26.3475 11.9675 25.1132C13.3125 23.768 13.6294 21.8986 13.6583 20.5673C13.6678 20.1337 13.9568 19.7487 14.361 19.631C15.0657 19.4257 15.6559 19.0889 16.1147 18.63C17.0698 17.6749 17.5937 16.5006 17.6295 15.2342C17.6557 14.3189 17.3862 13.3715 16.8706 12.4957L22.8338 6.53247C22.9047 6.54786 22.9779 6.55655 23.0529 6.55655C23.3401 6.55655 23.6276 6.43823 23.8464 6.23083L24.1452 5.98327L24.5309 6.36884C24.6484 6.4863 24.8024 6.54511 24.9565 6.54511C25.1105 6.54511 25.2645 6.4863 25.3821 6.36875C25.6171 6.13375 25.6171 5.75257 25.382 5.51756L25.0762 5.21179L25.3417 4.99183L25.663 5.31317C25.7806 5.43072 25.9346 5.48953 26.0886 5.48953C26.2427 5.48953 26.3967 5.43072 26.5142 5.31326C26.7493 5.07825 26.7493 4.69707 26.5143 4.46207L26.2727 4.22044ZM23.9137 1.24691L25.7537 3.08704L23.0833 5.29967L21.701 3.91725L23.9137 1.24691ZM16.4262 15.1999C16.3993 16.1534 15.9972 17.0451 15.2635 17.7786C14.9495 18.0927 14.5325 18.3271 14.0244 18.4751C13.121 18.7382 12.4755 19.5877 12.4548 20.541C12.4306 21.6519 12.1788 23.1993 11.1162 24.2619C10.0061 25.372 8.63052 25.9 7.16632 25.7785C5.77478 25.6626 4.36743 24.9589 3.2041 23.7973C2.04181 22.6334 1.33809 21.2259 1.22217 19.8343C1.09981 18.365 1.62425 16.9991 2.73899 15.8845C3.80137 14.822 5.3488 14.5702 6.45985 14.5459C7.4131 14.5252 8.26258 13.8797 8.52553 12.9763C8.67351 12.4685 8.90783 12.0515 9.22211 11.7373C9.95593 11.0036 10.8476 10.6014 11.8009 10.5744C11.8289 10.5736 11.8573 10.5732 11.8858 10.5732C12.9383 10.5732 14.0679 11.099 14.9846 12.0158C16.3294 13.3607 16.4408 14.6905 16.4262 15.1999ZM15.8359 11.1646C15.7244 11.0531 15.6092 10.9477 15.4923 10.8455L21.2095 5.1283L21.8723 5.79126L16.1552 11.5084C16.0531 11.3916 15.9476 11.2764 15.8359 11.1646Z" fill="white"/>
</g>
<defs>
<clipPath id="clip0">
<rect width="27" height="27" fill="white"/>
</clipPath>
</defs>
</svg>
