<svg width="33" height="33" viewBox="0 0 33 33" fill="none" xmlns="http://www.w3.org/2000/svg">
<path d="M16.033 0.0332031C7.20203 0.0332031 0.0424805 7.19688 0.0424805 16.0329C0.0424805 24.8693 7.20175 32.0332 16.033 32.0332C24.8645 32.0332 32.0243 24.8693 32.0243 16.0329C32.0241 7.19688 24.8645 0.0332031 16.033 0.0332031ZM9.39767 7.24944C10.4854 7.24944 11.3677 8.05451 11.3677 9.04769C11.3677 10.0409 10.4854 10.8459 9.39767 10.8459C8.30939 10.8459 7.42765 10.0409 7.42765 9.04769C7.42765 8.05451 8.30939 7.24944 9.39767 7.24944ZM11.3826 22.63H7.49014V12.4671H11.3826V22.63V22.63ZM24.6096 22.63H20.6983V17.0416C20.6983 16.4036 20.5799 15.9521 20.3441 15.6871C20.108 15.4226 19.7764 15.2898 19.3498 15.2898C18.8778 15.2898 18.4949 15.4686 18.2018 15.826C17.9085 16.1834 17.7622 16.8244 17.7622 17.7496V22.63H13.8694V12.4671H17.494V14.1224C18.0356 13.4465 18.5842 12.9632 19.1389 12.6727C19.6935 12.3825 20.369 12.2375 21.1661 12.2375C22.2439 12.2375 23.0869 12.5579 23.696 13.1992C24.3046 13.8402 24.6093 14.8306 24.6093 16.1704V22.63H24.6096Z" fill="white"/>
</svg>
