<svg width="33" height="33" viewBox="0 0 33 33" fill="none" xmlns="http://www.w3.org/2000/svg">
<path d="M16.7373 0.737793C7.90622 0.737793 0.74707 7.90134 0.74707 16.7375C0.74707 25.5734 7.90622 32.7378 16.7373 32.7378C25.5687 32.7378 32.7281 25.5737 32.7281 16.7375C32.7281 7.90134 25.5687 0.737793 16.7373 0.737793ZM24.5432 12.7626C24.5432 12.7626 24.9233 14.648 23.5591 17.96C22.1944 21.2721 18.8173 24.4051 14.1657 24.6962C9.51373 24.9869 7.00818 22.9281 7.00818 22.9281C10.4975 23.1967 12.0406 21.7645 12.8681 21.2945C9.62515 20.8693 9.1554 18.4301 9.1554 18.4301C9.46838 18.5645 10.43 18.5197 10.9446 18.3855C7.76908 17.6023 7.70189 14.4023 7.70189 14.4023C7.70189 14.4023 8.88693 15.0065 9.55797 14.8945C6.49363 12.567 8.28335 9.52361 8.28335 9.52361C12.3314 13.9547 16.6253 13.7085 16.6253 13.7085L16.6447 13.7375C16.5667 13.4255 16.5247 13.099 16.5247 12.7629C16.5247 10.5475 18.3196 8.75176 20.5338 8.75176C21.7033 8.75176 22.7559 9.25333 23.4889 10.0528L23.5143 10.0385C24.9454 9.94882 25.9969 9.18804 25.9969 9.18804C25.5612 10.4617 24.6355 11.0551 24.249 11.2549C24.2539 11.2668 24.2586 11.2787 24.2631 11.2903C24.7632 11.1691 26.105 10.8407 26.467 10.7323C25.6837 12.1642 24.5432 12.7626 24.5432 12.7626Z" fill="white"/>
</svg>
