<svg width="916" height="601" viewBox="0 0 916 601" fill="none" xmlns="http://www.w3.org/2000/svg">
<g clip-path="url(#clip0)">
<path d="M189.473 260.294C143.196 260.508 105.529 261.191 105.529 261.191C105.529 261.191 150.302 201.884 189.305 223.857C228.308 245.83 273.112 260.419 273.112 260.419C273.112 260.419 235.75 260.081 189.473 260.294Z" fill="white"/>
<path d="M708.362 277.918C713.716 277.918 718.056 273.578 718.056 268.224C718.056 262.87 713.716 258.53 708.362 258.53C703.008 258.53 698.668 262.87 698.668 268.224C698.668 273.578 703.008 277.918 708.362 277.918Z" fill="#FF6584"/>
<path d="M709.88 336.539L637.396 419.773L639.634 421.721L712.117 338.487L709.88 336.539Z" fill="#3F3D56"/>
<path d="M710.999 353.121C719.619 353.121 726.607 346.133 726.607 337.513C726.607 328.893 719.619 321.905 710.999 321.905C702.379 321.905 695.391 328.893 695.391 337.513C695.391 346.133 702.379 353.121 710.999 353.121Z" fill="#3F3D56"/>
<path d="M666.326 388.812C666.326 388.812 696.138 351.182 658.007 325.367L666.326 388.812Z" fill="#3F3D56"/>
<path d="M179.855 454.887C233.544 554.457 347.493 597.2 347.493 597.2C347.493 597.2 374.394 478.509 320.704 378.939C267.014 279.37 153.066 236.626 153.066 236.626C153.066 236.626 126.165 355.318 179.855 454.887Z" fill="#3F3D56"/>
<path d="M216.758 422.13C313.69 480.447 351.021 596.282 351.021 596.282C351.021 596.282 231.195 617.565 134.263 559.248C37.3315 500.93 0 385.096 0 385.096C0 385.096 119.826 363.812 216.758 422.13Z" fill="black"/>
<path d="M602.431 422.954C504.987 480.412 466.633 595.911 466.633 595.911C466.633 595.911 586.266 618.254 683.71 560.796C781.154 503.338 819.508 387.838 819.508 387.838C819.508 387.838 699.875 365.496 602.431 422.954Z" fill="#3F3D56"/>
<path d="M636.576 458.577C582.008 557.668 467.686 599.402 467.686 599.402C467.686 599.402 441.836 480.477 496.404 381.386C550.972 282.295 665.295 240.562 665.295 240.562C665.295 240.562 691.144 359.486 636.576 458.577Z" fill="black"/>
<path d="M438.547 185.845C432.914 180.751 429.401 173.726 428.704 166.164C428.008 158.601 430.178 151.053 434.785 145.015C434.175 145.587 433.579 146.18 433.008 146.812C430.341 149.762 428.281 153.208 426.945 156.955C425.61 160.701 425.025 164.674 425.225 168.646C425.629 176.669 429.203 184.202 435.161 189.589C441.12 194.976 448.974 197.776 456.996 197.372C460.968 197.172 464.862 196.192 468.456 194.487C472.049 192.782 475.272 190.386 477.939 187.436C478.51 186.805 479.04 186.152 479.548 185.488C474.004 190.678 466.711 193.595 459.117 193.661C451.523 193.728 444.181 190.938 438.547 185.845Z" fill="#2F2E41"/>
<path d="M411.113 207.341C445.563 207.341 473.49 179.414 473.49 144.965C473.49 110.515 445.563 82.5886 411.113 82.5886C376.664 82.5886 348.737 110.515 348.737 144.965C348.737 179.414 376.664 207.341 411.113 207.341Z" fill="#2F2E41"/>
<path d="M393.979 225.111L395.827 220.305L362.186 248.771L321.52 271.692C321.52 271.692 300.818 191.839 299.339 190.361C297.86 188.882 271.243 132.689 259.412 159.307C247.582 185.924 282.333 201.451 282.333 201.451C282.333 201.451 283.442 298.679 318.932 297.94C354.422 297.201 398.415 265.038 399.155 262.08C399.894 259.123 393.979 225.111 393.979 225.111Z" fill="#FFB8B8"/>
<path d="M403.591 208.845C424.008 208.845 440.56 192.294 440.56 171.876C440.56 151.459 424.008 134.907 403.591 134.907C383.174 134.907 366.622 151.459 366.622 171.876C366.622 192.294 383.174 208.845 403.591 208.845Z" fill="#FFB8B8"/>
<path d="M410.985 198.494C410.985 198.494 420.597 211.063 417.639 212.542C414.682 214.021 397.676 214.76 387.325 227.33C376.973 239.899 399.894 271.692 399.894 271.692L487.141 213.281L451.65 201.451C451.65 201.451 427.251 188.143 427.99 174.094L410.985 198.494Z" fill="#FFB8B8"/>
<path d="M528.749 600.53H430.239C424.659 559.73 422.079 522.34 422.079 522.34C422.079 522.34 420.639 559.95 416.809 600.53H290.249C308.189 480.37 393.239 350.07 393.239 350.07C393.239 350.07 393.979 332.32 396.199 329.36C398.419 326.41 383.629 325.67 376.969 303.49C372.909 289.95 376.559 281.09 380.029 276.25C381.22 274.506 382.685 272.966 384.369 271.69C384.369 271.69 385.849 256.17 384.369 253.95C384.179 253.66 385.638 252.64 388.339 251.09C390.589 249.79 393.699 248.12 397.419 246.2C418.729 235.15 459.979 215.6 474.109 208.94C477.209 207.47 479.009 206.63 479.009 206.63L504.148 215.5C524.108 222.15 524.109 264.3 524.109 264.3L522.979 266.02L492.809 311.72L475.309 338.24C479.749 341.19 470.879 359.68 470.879 359.68C470.879 359.68 483.518 377.84 493.799 405.56C499.612 420.988 503.576 437.05 505.609 453.41C506.904 464.013 507.159 474.717 506.369 485.37C503.629 520.99 515.809 564.28 528.749 600.53Z" fill="#2F2E41"/>
<path d="M504.503 219.858C503.683 219.397 502.773 219.121 501.835 219.049C500.898 218.976 499.956 219.109 499.076 219.439C498.195 219.768 497.397 220.286 496.737 220.955C496.077 221.625 495.572 222.431 495.255 223.316C493.029 229.438 490.773 242.2 491.577 268.735C493.055 317.533 493.795 350.805 493.795 350.805V424.743C493.795 424.743 461.262 495.723 479.007 495.723C496.752 495.723 509.322 439.531 509.322 439.531C509.322 439.531 525.588 354.502 520.412 339.715C520.412 339.715 535.006 237.558 504.503 219.858Z" fill="#FFB8B8"/>
<path d="M399.252 160.706C416.775 160.706 430.981 151.02 430.981 139.073C430.981 127.125 416.775 117.439 399.252 117.439C381.728 117.439 367.523 127.125 367.523 139.073C367.523 151.02 381.728 160.706 399.252 160.706Z" fill="#2F2E41"/>
<path d="M449.638 122.104C466.365 122.104 479.925 108.544 479.925 91.817C479.925 75.0901 466.365 61.5303 449.638 61.5303C432.911 61.5303 419.352 75.0901 419.352 91.817C419.352 108.544 432.911 122.104 449.638 122.104Z" fill="#2F2E41"/>
<path d="M471.272 113.45C463.677 113.449 456.36 110.595 450.771 105.452C445.182 100.31 441.73 93.2557 441.098 85.6875C441.029 86.5205 440.985 87.3606 440.985 88.2114C440.985 96.2439 444.176 103.947 449.856 109.627C455.536 115.307 463.239 118.498 471.272 118.498C479.304 118.498 487.008 115.307 492.688 109.627C498.367 103.947 501.558 96.2439 501.558 88.2114C501.558 87.3606 501.514 86.5205 501.445 85.6875C500.813 93.2557 497.361 100.31 491.772 105.452C486.183 110.595 478.866 113.449 471.272 113.45Z" fill="#2F2E41"/>
<path d="M439.716 165.43C441.106 165.098 441.618 162.253 440.859 159.075C440.1 155.898 438.358 153.591 436.968 153.923C435.578 154.255 435.066 157.1 435.825 160.278C436.584 163.455 438.326 165.762 439.716 165.43Z" fill="#FFB8B8"/>
<path d="M439.45 164.852C440.267 164.852 440.929 164.19 440.929 163.373C440.929 162.557 440.267 161.895 439.45 161.895C438.634 161.895 437.972 162.557 437.972 163.373C437.972 164.19 438.634 164.852 439.45 164.852Z" fill="#F2F2F2"/>
<path d="M87.9185 290.03C85.5451 290.03 83.225 289.326 81.2516 288.008C79.2782 286.689 77.7402 284.815 76.8319 282.622C75.9237 280.43 75.686 278.017 76.149 275.689C76.6121 273.361 77.755 271.223 79.4332 269.545C81.1114 267.867 83.2496 266.724 85.5774 266.261C87.9052 265.798 90.318 266.035 92.5107 266.943C94.7034 267.852 96.5775 269.39 97.8961 271.363C99.2147 273.337 99.9185 275.657 99.9185 278.03C99.9149 281.212 98.6495 284.262 96.3998 286.511C94.1501 288.761 91.1 290.026 87.9185 290.03ZM87.9185 268.03C85.9406 268.03 84.0073 268.617 82.3628 269.715C80.7183 270.814 79.4366 272.376 78.6797 274.203C77.9228 276.03 77.7248 278.041 78.1106 279.981C78.4965 281.921 79.4489 283.703 80.8474 285.101C82.2459 286.5 84.0278 287.452 85.9676 287.838C87.9074 288.224 89.918 288.026 91.7453 287.269C93.5726 286.512 95.1343 285.23 96.2332 283.586C97.332 281.941 97.9185 280.008 97.9185 278.03C97.9154 275.379 96.8609 272.837 94.9862 270.962C93.1115 269.088 90.5697 268.033 87.9185 268.03Z" fill="#3F3D56"/>
<path d="M607.418 202.53H581.418V176.53H607.418V202.53ZM583.418 200.53H605.418V178.53H583.418V200.53Z" fill="#3F3D56"/>
<path d="M831.473 342.294C785.196 342.508 747.529 343.191 747.529 343.191C747.529 343.191 792.302 283.884 831.305 305.857C870.308 327.83 915.112 342.419 915.112 342.419C915.112 342.419 877.75 342.081 831.473 342.294Z" fill="white"/>
<path d="M689.473 142.294C643.196 142.508 605.529 143.191 605.529 143.191C605.529 143.191 650.302 83.8842 689.305 105.857C728.308 127.83 773.112 142.419 773.112 142.419C773.112 142.419 735.75 142.081 689.473 142.294Z" fill="white"/>
<path d="M250.827 167.899L143.82 112.875C140.311 111.07 137.663 107.946 136.457 104.189C135.252 100.431 135.588 96.3493 137.393 92.8403L162.602 43.8152C162.968 43.1032 163.476 42.4733 164.093 41.9639C164.711 41.4545 165.425 41.0762 166.194 40.8521L250.536 16.2598C253.908 15.2766 257.528 15.6238 260.652 17.2301C263.776 18.8364 266.165 21.5794 267.327 24.8941L295.038 103.941C295.73 105.916 296.013 108.011 295.869 110.099C295.725 112.186 295.157 114.223 294.2 116.083L270.861 161.471C269.968 163.209 268.741 164.753 267.251 166.017C265.76 167.28 264.036 168.237 262.175 168.834C260.315 169.431 258.355 169.656 256.408 169.495C254.461 169.335 252.564 168.792 250.827 167.899Z" fill="#F2F2F2"/>
<path opacity="0.1" d="M255.078 148.469L147.033 102.342C143.552 100.552 146.816 103.304 148.606 99.8224L162.188 44.6201L294.545 112.679L261.083 154.053C259.293 157.535 258.56 150.259 255.078 148.469Z" fill="black"/>
<path d="M197.485 18.7102L154.357 102.583C152.289 106.604 153.873 111.539 157.893 113.607L241.766 156.735C245.787 158.803 250.722 157.219 252.79 153.199L295.918 69.3257C297.986 65.3051 296.402 60.3698 292.382 58.3024L208.509 15.1738C204.488 13.1063 199.553 14.6897 197.485 18.7102Z" fill="black"/>
<path opacity="0.1" d="M276.863 106.382L249.046 160.479L150.613 109.863L178.43 55.7671L215.415 104.863L276.863 106.382Z" fill="black"/>
<path d="M213.842 107.921L166.453 45.0139C166.16 44.6248 165.773 44.3165 165.328 44.1179C164.883 43.9193 164.395 43.8369 163.91 43.8784C163.424 43.9199 162.958 44.084 162.553 44.3553C162.148 44.6265 161.819 44.9961 161.596 45.4293L134.63 97.8713C134.091 98.9204 133.763 100.066 133.666 101.241C133.569 102.417 133.705 103.6 134.065 104.724C134.426 105.847 135.004 106.888 135.767 107.788C136.529 108.688 137.462 109.429 138.511 109.969L256.001 170.383C257.05 170.923 258.195 171.25 259.371 171.347C260.547 171.444 261.73 171.309 262.854 170.948C263.977 170.588 265.018 170.01 265.918 169.247C266.818 168.484 267.559 167.551 268.098 166.502L294.603 114.959C294.875 114.43 295.008 113.841 294.99 113.247C294.972 112.653 294.803 112.073 294.5 111.562C294.197 111.05 293.768 110.625 293.255 110.324C292.742 110.024 292.162 109.858 291.567 109.844L213.842 107.921Z" fill="#3F3D56"/>
<path d="M232.59 38.9835L205.062 24.8284L203.061 28.7212L230.589 42.8764L232.59 38.9835Z" fill="#F2F2F2"/>
<path d="M277.295 79.902L195.546 37.8655L194.402 40.0899L276.151 82.1265L277.295 79.902Z" fill="#F2F2F2"/>
<path d="M273.435 87.4096L191.686 45.373L190.542 47.5975L272.291 89.6341L273.435 87.4096Z" fill="#F2F2F2"/>
<path d="M269.575 94.9172L187.825 52.8806L186.681 55.1051L268.431 97.1416L269.575 94.9172Z" fill="#F2F2F2"/>
<path d="M215.864 20.9159C219.107 14.6081 216.632 6.8701 210.336 3.63248C204.04 0.394854 196.306 2.88366 193.063 9.1914C189.819 15.4991 192.294 23.2372 198.59 26.4748C204.887 29.7124 212.62 27.2236 215.864 20.9159Z" fill="white"/>
<path d="M211.337 1.68602C208.643 0.300351 205.598 -0.255119 202.587 0.0898598C199.577 0.434839 196.736 1.66478 194.425 3.62413C192.113 5.58348 190.435 8.18425 189.602 11.0976C188.768 14.0109 188.817 17.1058 189.743 19.9911C190.669 22.8764 192.429 25.4224 194.802 27.3072C197.174 29.192 200.053 30.3308 203.073 30.5798C206.093 30.8287 209.118 30.1766 211.768 28.7059C214.417 27.2351 216.571 25.0118 217.956 22.317C219.802 18.7013 220.142 14.502 218.902 10.6364C217.662 6.7708 214.942 3.55305 211.337 1.68602ZM197.799 21.1371L194.407 10.5637L197.372 9.61224L199.816 17.2298L215.895 12.0716L216.846 15.0373L197.799 21.1371Z" fill="#57B894"/>
</g>
<defs>
<clipPath id="clip0">
<rect width="915.112" height="600.53" fill="white"/>
</clipPath>
</defs>
</svg>
