<svg width="17" height="20" viewBox="0 0 17 20" fill="none" xmlns="http://www.w3.org/2000/svg">
<path d="M13.6637 7.125H11.875V1.5C11.875 0.88125 11.3687 0.375 10.75 0.375H6.25C5.63125 0.375 5.125 0.88125 5.125 1.5V7.125H3.33625C2.335 7.125 1.82875 8.34 2.5375 9.04875L7.70125 14.2125C8.14 14.6512 8.84875 14.6512 9.2875 14.2125L14.4513 9.04875C15.16 8.34 14.665 7.125 13.6637 7.125ZM0.625 18.375C0.625 18.9937 1.13125 19.5 1.75 19.5H15.25C15.8687 19.5 16.375 18.9937 16.375 18.375C16.375 17.7563 15.8687 17.25 15.25 17.25H1.75C1.13125 17.25 0.625 17.7563 0.625 18.375Z" fill="black"/>
</svg>
